<?xml version="1.0" encoding="UTF-8"?>
<svg id="Layer_1" data-name="Layer 1" xmlns="http://www.w3.org/2000/svg" viewBox="0 0 943.77 445.63">
  <defs>
    <style>
      .cls-1 {
        fill: #2e368f;
      }

      .cls-1, .cls-2, .cls-3, .cls-4, .cls-5 {
        stroke-width: 0px;
      }

      .cls-2 {
        fill: #fff;
      }

      .cls-3 {
        fill: #009247;
      }

      .cls-4 {
        fill: #231f20;
      }

      .cls-5 {
        fill: #f79226;
      }
    </style>
  </defs>
  <circle class="cls-5" cx="472.34" cy="189.36" r="189.36"/>
  <path class="cls-3" d="m286.91,91.22c120.65,3.59,95.8,76.12,186.29,116.78,36.41,16.36,69.83,27.36,118.04,3.83,34.63-16.9,150.28-23.43,205.19,34.24,61.07,64.15,74.48,125.12,74.48,125.12l-846.05,8.97C84.43,235.67,166.26,87.64,286.91,91.22Z"/>
  <g>
    <g>
      <path class="cls-1" d="m16.7,204.41v-93.49h49.28c6.72,0,12.7.58,17.79,1.72,5.19,1.17,9.62,2.87,13.16,5.05,3.68,2.27,6.5,5.07,8.38,8.32,1.9,3.28,2.86,6.97,2.86,10.96s-1.13,7.87-3.36,11.41c-1.29,2.04-2.93,3.92-4.9,5.63,4.12,1.77,7.43,4.04,9.85,6.79,3.49,3.95,5.26,8.81,5.26,14.47,0,3.83-.93,7.57-2.77,11.12-1.82,3.52-4.56,6.66-8.14,9.35-3.5,2.63-7.9,4.76-13.09,6.33-5.13,1.55-11.17,2.34-17.96,2.34H16.7Zm40.66-18.55c3.2,0,5.9-.33,8.02-.99,2.01-.63,3.64-1.47,4.83-2.51,1.15-1,1.96-2.13,2.46-3.45.54-1.42.82-2.98.82-4.63,0-1.41-.28-2.75-.84-4.11-.56-1.34-1.38-2.5-2.49-3.55-1.13-1.06-2.56-1.94-4.26-2.61-1.71-.67-3.74-1.01-6.05-1.01h-3.31v22.88h.83Zm0-39.24c2.96,0,5.45-.27,7.4-.81,1.82-.5,3.26-1.17,4.27-1.99.95-.77,1.61-1.6,2-2.54.43-1.04.64-2.1.64-3.23s-.21-2.19-.64-3.23c-.39-.93-1.03-1.75-1.98-2.5-1.02-.81-2.47-1.48-4.31-2.01-1.94-.55-4.43-.84-7.38-.84h-.78l-.04,17.14h.82Z"/>
      <path class="cls-2" d="m65.98,113.76c6.54,0,12.26.55,17.17,1.65,4.91,1.1,9,2.67,12.29,4.7,3.29,2.03,5.76,4.47,7.42,7.33,1.65,2.86,2.48,6.04,2.48,9.54s-.98,6.81-2.93,9.9c-1.95,3.09-4.8,5.76-8.54,8.01,6.15,1.77,10.74,4.37,13.77,7.8,3.03,3.43,4.55,7.62,4.55,12.59,0,3.39-.82,6.66-2.45,9.81-1.64,3.15-4.08,5.95-7.33,8.39-3.25,2.44-7.32,4.4-12.2,5.88-4.89,1.48-10.6,2.22-17.14,2.22H19.53v-87.82h46.45m-12.29,35.69h3.66c3.23,0,5.95-.3,8.16-.92,2.21-.61,3.97-1.45,5.29-2.51,1.32-1.06,2.27-2.28,2.84-3.66.57-1.38.86-2.82.86-4.31s-.29-2.93-.86-4.31c-.57-1.38-1.52-2.59-2.84-3.63-1.32-1.04-3.08-1.88-5.29-2.51-2.21-.63-4.93-.95-8.16-.95h-3.6l-.06,22.81m0,39.24h3.66c3.51,0,6.46-.37,8.86-1.12,2.4-.75,4.35-1.77,5.85-3.07,1.5-1.3,2.58-2.83,3.25-4.58.67-1.75,1-3.63,1-5.64,0-1.77-.35-3.51-1.06-5.2-.71-1.69-1.76-3.2-3.16-4.52-1.4-1.32-3.12-2.38-5.17-3.19-2.05-.81-4.41-1.21-7.09-1.21h-6.15v28.54m12.29-80.6H13.86v99.16h59.21c7.07,0,13.38-.83,18.78-2.46,5.5-1.66,10.2-3.94,13.97-6.77,3.92-2.95,6.93-6.42,8.95-10.31,2.05-3.95,3.09-8.13,3.09-12.42,0-6.37-2.01-11.86-5.97-16.34-1.93-2.18-4.32-4.08-7.17-5.69.93-1.06,1.76-2.18,2.49-3.34,2.52-4,3.8-8.34,3.8-12.92s-1.09-8.67-3.25-12.39c-2.12-3.66-5.27-6.79-9.34-9.31-3.81-2.35-8.53-4.17-14.03-5.4-5.29-1.19-11.49-1.79-18.41-1.79h0Zm-6.61,35.65l.03-11.37c1.78.1,3.31.32,4.55.68,1.84.53,2.83,1.11,3.33,1.51.55.44.92.88,1.12,1.36.28.69.42,1.39.42,2.14s-.14,1.45-.43,2.15c-.2.49-.58.95-1.16,1.42-.49.39-1.44.96-3.24,1.46-1.26.35-2.81.57-4.62.66h0Zm-.01,22.08h.48c1.95,0,3.64.28,5.01.82,1.36.54,2.49,1.22,3.36,2.04.82.78,1.42,1.62,1.82,2.59.42,1,.62,1.99.62,3.01,0,1.32-.21,2.51-.63,3.62-.34.88-.88,1.64-1.67,2.32-.9.78-2.18,1.43-3.82,1.94-1.4.44-3.14.71-5.17.82v-17.16h0Z"/>
    </g>
    <g>
      <path class="cls-1" d="m122.72,204.41v-64.23h33.19l2.27,6.82c1.17-.8,2.31-1.53,3.41-2.19,2.09-1.26,4.16-2.34,6.13-3.19,2.03-.88,4.04-1.53,5.97-1.94,1.94-.41,3.9-.62,5.82-.62,2.83,0,5.44.41,7.76,1.22,2.38.83,4.45,2.04,6.17,3.59,1.74,1.57,3.09,3.46,4.01,5.63.92,2.14,1.38,4.51,1.38,7.06s-.57,5.05-1.7,7.26c-1.12,2.2-2.76,4.11-4.88,5.68-2.04,1.52-4.55,2.71-7.45,3.53-2.82.8-6.05,1.2-9.61,1.2h-1.42l-10.3-13.75c-.46.09-.95.23-1.46.41-.57.2-1.08.47-1.54.81v42.72h-37.76Z"/>
      <path class="cls-2" d="m179.51,141.89c2.52,0,4.8.35,6.83,1.06,2.03.71,3.76,1.71,5.2,3.01,1.44,1.3,2.54,2.85,3.31,4.64.77,1.79,1.15,3.77,1.15,5.94s-.46,4.16-1.39,5.97c-.93,1.81-2.28,3.38-4.05,4.7-1.77,1.32-3.95,2.34-6.53,3.07-2.58.73-5.53,1.09-8.83,1.09l-10.4-13.89c-1.14,0-2.38.24-3.72.71-1.34.47-2.48,1.22-3.43,2.25v41.13h-32.09v-58.57h28.31l2.84,8.51c2.25-1.65,4.36-3.08,6.35-4.28,1.99-1.2,3.92-2.21,5.79-3.01,1.87-.81,3.68-1.4,5.44-1.77,1.75-.37,3.5-.56,5.23-.56m0-5.67c-2.12,0-4.28.23-6.41.69-2.11.45-4.29,1.16-6.5,2.11-2.1.9-4.28,2.04-6.48,3.37-.14.08-.27.17-.41.25l-.47-1.41-1.29-3.88h-38.06v69.9h43.43v-42.28l7.34,9.81,1.7,2.27h2.84c3.82,0,7.31-.44,10.38-1.31,3.24-.91,6.05-2.25,8.37-3.98,2.47-1.84,4.39-4.08,5.71-6.67,1.33-2.61,2.01-5.49,2.01-8.55s-.54-5.68-1.61-8.17c-1.09-2.54-2.68-4.77-4.72-6.61-2-1.8-4.39-3.2-7.13-4.16-2.62-.92-5.55-1.38-8.7-1.38h0Z"/>
    </g>
    <g>
      <path class="cls-1" d="m226.78,205.54c-4.14,0-7.96-.55-11.36-1.64-3.44-1.1-6.43-2.64-8.89-4.58-2.52-1.98-4.51-4.37-5.91-7.11-1.42-2.77-2.14-5.82-2.14-9.06s.74-6.38,2.21-9.22c1.45-2.8,3.54-5.27,6.23-7.33,2.62-2.01,5.8-3.6,9.45-4.74,3.61-1.12,7.67-1.69,12.07-1.69s8.52.52,12.35,1.54c1.86.5,3.59,1.07,5.18,1.71-.12-.7-.27-1.34-.46-1.93-.47-1.49-1.15-2.65-2.08-3.55-.93-.9-2.11-1.54-3.62-1.97-1.69-.48-3.75-.72-6.11-.72-2.24,0-4.59.2-6.99.58-2.37.38-4.58.94-6.57,1.67l-2.3.84-6.97-12.9,2.91-1.2c4.47-1.85,9.16-3.19,13.94-3.99,4.72-.79,9.66-1.19,14.68-1.19,6.46,0,12.29.63,17.32,1.89,5.16,1.29,9.58,3.25,13.15,5.83,3.67,2.66,6.49,6.05,8.38,10.07,1.86,3.97,2.81,8.64,2.81,13.88v33.68h-34.8l-1.47-4.16c-.46.26-.94.52-1.44.78-1.74.89-3.67,1.69-5.73,2.36-2.06.67-4.27,1.2-6.57,1.58-2.31.38-4.75.57-7.25.57Zm15.84-27.89c-1.92,0-3.32.41-4.17,1.21-.82.78-1.21,1.75-1.21,3.05s.38,2.34,1.19,3.12c.84.8,2.01,1.19,3.6,1.19.95,0,1.89-.16,2.81-.47.51-.17.99-.39,1.44-.65v-6.77c-1.14-.46-2.35-.68-3.67-.68Z"/>
      <path class="cls-2" d="m242.38,141.89c6.26,0,11.81.6,16.64,1.8,4.83,1.2,8.88,2.99,12.17,5.38,3.29,2.38,5.78,5.38,7.48,8.98,1.69,3.6,2.54,7.83,2.54,12.68v30.85h-29.96l-2.01-5.67c-1.18.91-2.58,1.77-4.2,2.6-1.62.83-3.39,1.56-5.32,2.19-1.93.63-3.98,1.12-6.15,1.48-2.17.35-4.43.53-6.8.53-3.86,0-7.36-.5-10.49-1.51-3.13-1-5.8-2.37-8.01-4.11-2.21-1.73-3.92-3.79-5.14-6.18-1.22-2.38-1.83-4.97-1.83-7.77s.63-5.48,1.89-7.92c1.26-2.44,3.07-4.57,5.44-6.38,2.36-1.81,5.22-3.24,8.57-4.28,3.35-1.04,7.09-1.57,11.23-1.57s8.01.48,11.61,1.45c3.6.97,6.63,2.2,9.07,3.69v-.47c0-2.76-.31-5.1-.92-7.03-.61-1.93-1.55-3.51-2.81-4.73-1.26-1.22-2.87-2.11-4.82-2.66-1.95-.55-4.25-.83-6.88-.83-2.4,0-4.89.21-7.45.62-2.56.41-4.93,1.02-7.09,1.8l-4.31-7.98c4.29-1.77,8.74-3.04,13.33-3.81,4.59-.77,9.33-1.15,14.21-1.15m-.35,47.16c1.26,0,2.5-.21,3.72-.62,1.22-.41,2.34-1.03,3.37-1.86v-9.99c-1.97-1.18-4.14-1.77-6.5-1.77-2.68,0-4.72.66-6.12,1.98-1.4,1.32-2.1,3.02-2.1,5.11s.69,3.85,2.07,5.17c1.38,1.32,3.23,1.98,5.56,1.98m.35-52.83c-5.17,0-10.27.41-15.15,1.23-4.99.83-9.89,2.24-14.55,4.16l-5.82,2.4,2.99,5.54,4.31,7.98.94,1.74c-3.8,1.23-7.14,2.93-9.92,5.07-3.02,2.32-5.39,5.1-7.03,8.28-1.67,3.24-2.52,6.78-2.52,10.52s.83,7.18,2.46,10.36c1.59,3.1,3.84,5.81,6.68,8.05,2.73,2.14,6.02,3.84,9.78,5.05,3.68,1.18,7.79,1.78,12.22,1.78,2.66,0,5.25-.2,7.71-.61,2.44-.4,4.79-.97,6.99-1.68,1.65-.54,3.22-1.15,4.7-1.83l1.06,2.99h39.64v-36.52c0-5.66-1.04-10.74-3.08-15.09-2.1-4.47-5.22-8.22-9.28-11.16-3.86-2.8-8.62-4.92-14.13-6.29-5.25-1.31-11.31-1.97-18.01-1.97h0Zm-.35,47.16c-.8,0-1.35-.14-1.63-.4-.13-.12-.32-.31-.32-1.08,0-.69.17-.85.32-.99.17-.16.83-.43,2.23-.43.28,0,.56.01.83.04v2.68c-.47.12-.94.18-1.42.18h0Z"/>
    </g>
    <g>
      <path class="cls-1" d="m339.01,204.41v-41.01c0-1.79-.44-2.39-.57-2.53-.35-.36-.99-.54-1.91-.54-.82,0-1.79.19-2.86.56-.59.2-1.11.47-1.57.81v42.72h-37.76v-64.23h33.19l2.27,6.81c3.37-2.25,6.81-4.03,10.27-5.33,4.61-1.73,9.53-2.6,14.62-2.6,3.06,0,5.96.52,8.62,1.55,2.75,1.06,5.16,2.72,7.18,4.92,2,2.18,3.57,4.98,4.68,8.32,1.08,3.25,1.62,7.14,1.62,11.56v39h-37.76Z"/>
      <path class="cls-2" d="m354.67,141.89c2.72,0,5.25.45,7.59,1.36,2.34.91,4.38,2.3,6.12,4.2,1.73,1.89,3.09,4.32,4.08,7.3.98,2.98,1.48,6.53,1.48,10.67v36.17h-32.09v-38.18c0-2.05-.45-3.55-1.36-4.49-.91-.95-2.23-1.42-3.96-1.42-1.14,0-2.4.24-3.78.71-1.38.47-2.54,1.22-3.49,2.25v41.13h-32.09v-58.57h28.31l2.84,8.51c4.18-3.19,8.42-5.59,12.74-7.21,4.31-1.61,8.85-2.42,13.62-2.42m0-5.67c-5.42,0-10.68.94-15.61,2.78-2.59.97-5.17,2.2-7.72,3.68l-.49-1.46-1.29-3.88h-38.06v69.9h43.43v-43.8c.53-.16.94-.24,1.25-.27,0,.07,0,.14,0,.22v43.85h43.43v-41.84c0-4.72-.59-8.91-1.76-12.45-1.24-3.73-3.01-6.87-5.28-9.35-2.32-2.53-5.1-4.43-8.25-5.65-2.99-1.16-6.23-1.74-9.64-1.74h0Z"/>
    </g>
    <g>
      <path class="cls-1" d="m413.12,205.54c-2.99,0-5.79-.12-8.31-.37-2.54-.25-4.98-.62-7.25-1.12-2.27-.49-4.48-1.11-6.56-1.83-2.05-.71-4.11-1.53-6.11-2.43l-2.85-1.28,9.07-15.87,2.43,1.31c1.56.84,3.09,1.61,4.54,2.3,1.39.66,2.79,1.22,4.16,1.67,1.37.45,2.76.81,4.14,1.06,1.34.24,2.77.37,4.25.37,2.86,0,3.92-.41,4.25-.59.01,0,.02-.01.03-.02-.09-.06-.21-.13-.35-.2-.54-.27-1.21-.54-1.97-.78-.88-.29-1.85-.58-2.92-.89l-3.4-1.01c-3.49-1.04-6.56-2.28-9.12-3.69-2.66-1.46-4.88-3.15-6.62-5.02-1.77-1.91-3.12-4.01-3.99-6.24-.87-2.23-1.32-4.64-1.32-7.15,0-3.21.73-6.36,2.17-9.35,1.45-3.01,3.69-5.7,6.67-8.01,2.91-2.26,6.63-4.07,11.07-5.38,4.36-1.29,9.57-1.95,15.49-1.95,2.22,0,4.56.13,6.96.4,2.35.26,4.67.6,6.9,1,2.22.4,4.34.87,6.3,1.38,2,.52,3.72,1.06,5.11,1.61l2.99,1.18-8.1,14.82-2.49-1.36c-.7-.38-1.56-.74-2.56-1.06-1.09-.35-2.23-.67-3.37-.95-1.12-.27-2.22-.48-3.24-.63-.99-.14-1.82-.21-2.47-.21-2.14,0-3.01.31-3.29.45.02.01.04.03.06.04.29.22.87.57,1.96,1.06.95.42,2.24.88,3.85,1.35l3.33,1.01c3.85,1.16,7.12,2.5,9.71,3.97,2.66,1.52,4.86,3.2,6.53,5,1.74,1.88,2.99,3.92,3.73,6.06.71,2.06,1.07,4.2,1.07,6.36,0,3.28-.8,6.5-2.38,9.57-1.59,3.09-4.12,5.83-7.52,8.14-3.27,2.22-7.49,4.02-12.55,5.33-4.98,1.3-11.04,1.95-18.03,1.95Z"/>
      <path class="cls-2" d="m420.62,141.89c2.13,0,4.34.13,6.65.38,2.3.26,4.54.58,6.71.98,2.17.39,4.2.84,6.09,1.33,1.89.49,3.49,1,4.79,1.51l-5.2,9.51c-.87-.47-1.88-.9-3.04-1.27-1.16-.37-2.36-.71-3.58-1-1.22-.3-2.39-.52-3.52-.68-1.12-.16-2.08-.24-2.87-.24-2.29,0-3.92.32-4.9.95-.99.63-1.48,1.4-1.48,2.3,0,.35.1.73.3,1.12.2.39.59.81,1.18,1.24.59.43,1.42.89,2.48,1.36,1.06.47,2.46.97,4.2,1.48l3.31,1c3.66,1.1,6.71,2.34,9.13,3.72,2.42,1.38,4.37,2.87,5.85,4.46,1.48,1.6,2.52,3.28,3.13,5.05s.92,3.59.92,5.44c0,2.84-.69,5.59-2.07,8.27-1.38,2.68-3.57,5.04-6.59,7.09-3.02,2.05-6.91,3.69-11.67,4.93-4.77,1.24-10.54,1.86-17.32,1.86-2.92,0-5.59-.12-8.04-.35-2.44-.24-4.75-.59-6.91-1.06-2.17-.47-4.25-1.05-6.23-1.74-1.99-.69-3.95-1.47-5.88-2.33l6.15-10.76c1.61.87,3.17,1.65,4.67,2.36,1.5.71,2.99,1.31,4.49,1.8,1.5.49,3,.88,4.52,1.15,1.52.28,3.1.41,4.76.41,2.6,0,4.47-.31,5.61-.95,1.14-.63,1.71-1.46,1.71-2.48,0-.63-.19-1.16-.56-1.6-.38-.43-.9-.82-1.57-1.15-.67-.33-1.46-.65-2.36-.95-.91-.3-1.91-.6-3.01-.92l-3.37-1c-3.31-.98-6.17-2.14-8.57-3.46-2.4-1.32-4.37-2.81-5.91-4.46s-2.68-3.44-3.43-5.35c-.75-1.91-1.12-3.95-1.12-6.12,0-2.8.63-5.5,1.89-8.13,1.26-2.62,3.21-4.95,5.85-7,2.64-2.05,6.02-3.68,10.14-4.9,4.12-1.22,9.01-1.83,14.69-1.83m0-5.67c-6.19,0-11.67.7-16.3,2.07-4.78,1.42-8.81,3.39-12,5.86-3.33,2.58-5.84,5.62-7.48,9.02-1.63,3.38-2.45,6.94-2.45,10.58,0,2.87.51,5.62,1.51,8.19,1,2.56,2.53,4.96,4.55,7.14.29.31.59.62.9.92l-2.08,3.64-6.15,10.76-3.1,5.43,5.7,2.56c2.08.93,4.22,1.78,6.35,2.52,2.19.76,4.5,1.41,6.88,1.93,2.37.52,4.92.91,7.58,1.17,2.61.25,5.5.38,8.58.38,7.23,0,13.53-.69,18.74-2.04,5.37-1.4,9.89-3.33,13.43-5.73,3.79-2.58,6.63-5.67,8.44-9.19,1.79-3.48,2.7-7.13,2.7-10.87,0-2.48-.41-4.93-1.23-7.29-.87-2.51-2.32-4.89-4.33-7.06-1.87-2.02-4.29-3.88-7.21-5.54-.08-.05-.16-.09-.25-.14l1.2-2.2,5.2-9.51,3.08-5.64-5.98-2.36c-1.52-.6-3.3-1.16-5.43-1.72-2.03-.53-4.21-1-6.5-1.42-2.29-.42-4.68-.76-7.1-1.03-2.5-.28-4.95-.42-7.28-.42h0Z"/>
    </g>
    <g>
      <path class="cls-1" d="m501.41,205.54c-6.84,0-13.06-.76-18.48-2.26-5.51-1.52-10.26-3.73-14.13-6.56-3.95-2.89-7.02-6.45-9.12-10.57-2.11-4.12-3.18-8.77-3.18-13.82s1.07-9.75,3.18-13.88c2.1-4.12,5.17-7.68,9.12-10.57,3.87-2.83,8.62-5.04,14.13-6.56,5.42-1.5,11.64-2.26,18.49-2.26s13.06.76,18.48,2.26c5.51,1.52,10.26,3.73,14.13,6.56,3.95,2.89,7.02,6.45,9.12,10.57,2.11,4.13,3.18,8.8,3.18,13.88s-1.07,9.69-3.18,13.82c-2.11,4.13-5.18,7.68-9.12,10.57-3.87,2.83-8.62,5.04-14.13,6.56-5.42,1.5-11.64,2.26-18.48,2.26Zm0-50c-1.04,0-1.89.18-2.61.56-.59.31-1.12.94-1.6,1.87-.61,1.21-1.1,2.94-1.44,5.16-.37,2.36-.56,5.46-.56,9.2s.19,6.77.56,9.14c.35,2.22.83,3.95,1.44,5.15.47.94,1.01,1.57,1.6,1.88.72.38,1.57.56,2.61.56s1.86-.19,2.6-.57c.6-.31,1.14-.94,1.61-1.86.61-1.21,1.1-2.94,1.44-5.15.37-2.37.56-5.44.56-9.14s-.19-6.83-.56-9.2c-.35-2.21-.83-3.95-1.44-5.16-.47-.93-1.01-1.56-1.61-1.87-.74-.38-1.59-.57-2.6-.57Z"/>
      <path class="cls-2" d="m501.41,141.89c6.62,0,12.53.72,17.73,2.16,5.2,1.44,9.6,3.48,13.21,6.12,3.61,2.64,6.36,5.83,8.27,9.57,1.91,3.74,2.87,7.94,2.87,12.59s-.96,8.79-2.87,12.53c-1.91,3.74-4.67,6.93-8.27,9.57-3.6,2.64-8.01,4.68-13.21,6.12-5.2,1.44-11.11,2.16-17.73,2.16s-12.53-.72-17.73-2.16-9.6-3.48-13.21-6.12c-3.61-2.64-6.36-5.83-8.27-9.57-1.91-3.74-2.87-7.92-2.87-12.53s.95-8.84,2.87-12.59c1.91-3.74,4.67-6.93,8.27-9.57,3.6-2.64,8.01-4.68,13.21-6.12,5.2-1.44,11.11-2.16,17.73-2.16m0,50c1.46,0,2.76-.3,3.9-.89,1.14-.59,2.09-1.62,2.84-3.1.75-1.48,1.32-3.48,1.71-6,.39-2.52.59-5.71.59-9.57s-.2-7.11-.59-9.63c-.39-2.52-.97-4.52-1.71-6s-1.69-2.51-2.84-3.1c-1.14-.59-2.44-.89-3.9-.89s-2.81.3-3.93.89c-1.12.59-2.06,1.62-2.81,3.1-.75,1.48-1.32,3.48-1.71,6-.39,2.52-.59,5.73-.59,9.63s.2,7.05.59,9.57c.39,2.52.96,4.52,1.71,6,.75,1.48,1.68,2.51,2.81,3.1,1.12.59,2.43.89,3.93.89m0-55.67c-7.1,0-13.57.79-19.24,2.36-5.84,1.62-10.9,3.97-15.05,7.01-4.31,3.16-7.67,7.05-9.97,11.57-2.31,4.53-3.49,9.63-3.49,15.17s1.17,10.58,3.49,15.11c2.31,4.52,5.66,8.41,9.97,11.57,4.14,3.03,9.21,5.39,15.05,7.01,5.67,1.57,12.14,2.36,19.24,2.36s13.57-.79,19.24-2.36c5.84-1.61,10.9-3.97,15.05-7.01,4.31-3.15,7.66-7.05,9.97-11.57,2.31-4.53,3.49-9.62,3.49-15.11s-1.17-10.63-3.49-15.16c-2.31-4.53-5.67-8.42-9.97-11.57-4.14-3.03-9.21-5.39-15.05-7.01-5.67-1.57-12.14-2.36-19.24-2.36h0Zm-1.24,22.36c.36-.17.87-.21,1.24-.21.52,0,.93.08,1.25.23.05.05.21.22.43.65.33.65.8,1.92,1.17,4.31.35,2.22.52,5.17.52,8.76s-.18,6.48-.52,8.7c-.37,2.39-.84,3.66-1.17,4.31-.22.43-.38.6-.43.65-.32.16-.73.23-1.25.23-.37,0-.88-.04-1.24-.21-.05-.05-.22-.24-.44-.67-.33-.65-.8-1.92-1.17-4.31-.35-2.22-.52-5.14-.52-8.7s.18-6.54.52-8.76c.37-2.39.84-3.67,1.17-4.31.22-.44.38-.62.44-.67h0Z"/>
    </g>
    <g>
      <path class="cls-1" d="m598.03,204.41v-41.01c0-1.79-.44-2.39-.57-2.53-.35-.36-.99-.55-1.91-.55-.82,0-1.79.19-2.86.56-.59.2-1.11.47-1.57.81v42.72h-37.76v-64.23h33.19l2.27,6.81c3.37-2.25,6.81-4.03,10.27-5.33,4.61-1.73,9.53-2.6,14.62-2.6,3.06,0,5.96.52,8.62,1.55,2.74,1.06,5.16,2.72,7.18,4.92,2,2.18,3.57,4.98,4.68,8.32,1.08,3.25,1.62,7.14,1.62,11.56v39h-37.76Z"/>
      <path class="cls-2" d="m613.69,141.89c2.72,0,5.25.45,7.59,1.36,2.34.91,4.38,2.3,6.12,4.2,1.73,1.89,3.09,4.32,4.08,7.3.98,2.98,1.48,6.53,1.48,10.67v36.17h-32.09v-38.18c0-2.05-.45-3.55-1.36-4.49-.91-.95-2.23-1.42-3.96-1.42-1.14,0-2.4.24-3.78.71-1.38.47-2.54,1.22-3.49,2.25v41.13h-32.09v-58.57h28.31l2.84,8.51c4.18-3.19,8.42-5.59,12.74-7.21,4.31-1.61,8.85-2.42,13.62-2.42m0-5.67c-5.43,0-10.68.94-15.61,2.78-2.59.97-5.17,2.2-7.72,3.68l-.49-1.46-1.29-3.88h-38.06v69.9h43.43v-43.8c.53-.16.94-.24,1.25-.27,0,.07,0,.14,0,.22v43.85h43.43v-41.84c0-4.72-.59-8.91-1.76-12.45-1.24-3.73-3.01-6.87-5.28-9.35-2.32-2.53-5.1-4.43-8.25-5.65-2.99-1.16-6.23-1.74-9.64-1.74h0Z"/>
    </g>
  </g>
  <g>
    <g>
      <path class="cls-1" d="m78.08,385.03c-11.44,0-21.92-1.72-31.14-5.11-9.26-3.4-17.25-8.12-23.75-14.03-6.52-5.92-11.6-12.95-15.1-20.87-3.49-7.92-5.26-16.48-5.26-25.43,0-6,.79-11.88,2.35-17.46,1.56-5.6,3.88-10.88,6.9-15.72,3.01-4.83,6.75-9.28,11.11-13.25,4.36-3.96,9.39-7.4,14.95-10.23,5.54-2.81,11.73-5.02,18.4-6.56,6.66-1.54,13.9-2.32,21.54-2.32,4.89,0,9.65.31,14.14.92,4.49.61,8.77,1.48,12.73,2.56,3.96,1.09,7.69,2.37,11.09,3.79,3.37,1.42,6.48,2.94,9.24,4.52l2.35,1.34-9.52,18.59-2.49-1.2c-2.87-1.38-6.19-2.57-9.89-3.52-3.64-.94-7.48-1.42-11.41-1.42-5.2,0-10.08.94-14.49,2.8-4.4,1.85-8.25,4.51-11.44,7.9-3.21,3.41-5.77,7.61-7.62,12.49-1.86,4.9-2.8,10.51-2.8,16.67s.93,11.69,2.76,16.6c1.82,4.88,4.36,9.1,7.54,12.53,3.17,3.42,6.99,6.1,11.37,7.98,4.38,1.88,9.21,2.83,14.35,2.83,3.68,0,7.41-.45,11.09-1.35,3.71-.9,7.14-2.11,10.21-3.59l2.49-1.21,9.5,18.55-2.29,1.36c-2.77,1.64-5.88,3.18-9.25,4.58-3.35,1.4-7.04,2.66-10.94,3.75-3.91,1.09-8.16,1.95-12.62,2.57-4.46.61-9.21.92-14.1.92Z"/>
      <path class="cls-2" d="m78.08,256.89c4.79,0,9.37.3,13.76.9,4.38.6,8.5,1.43,12.37,2.49,3.86,1.06,7.44,2.29,10.74,3.67,3.29,1.39,6.27,2.84,8.94,4.37l-7.02,13.71c-3.05-1.47-6.52-2.71-10.41-3.71-3.89-1.01-7.93-1.51-12.12-1.51-5.61,0-10.8,1.01-15.59,3.02-4.79,2.01-8.93,4.87-12.41,8.57-3.48,3.7-6.22,8.18-8.2,13.43-1.99,5.25-2.98,11.14-2.98,17.67s.98,12.34,2.94,17.59c1.96,5.25,4.67,9.74,8.12,13.47,3.46,3.73,7.56,6.61,12.33,8.65,4.76,2.04,9.92,3.06,15.47,3.06,3.92,0,7.84-.48,11.76-1.43,3.92-.95,7.51-2.22,10.78-3.8l7.02,13.71c-2.67,1.58-5.63,3.05-8.9,4.41-3.27,1.36-6.8,2.57-10.61,3.63-3.81,1.06-7.89,1.89-12.25,2.49-4.35.6-8.93.9-13.71.9-11.16,0-21.21-1.65-30.16-4.94-8.95-3.29-16.56-7.78-22.82-13.47-6.26-5.69-11.06-12.33-14.41-19.92-3.35-7.59-5.02-15.69-5.02-24.29,0-5.77.75-11.33,2.25-16.69,1.5-5.36,3.69-10.35,6.57-14.98,2.88-4.62,6.42-8.84,10.61-12.65,4.19-3.81,8.97-7.07,14.33-9.8,5.36-2.72,11.28-4.83,17.76-6.33,6.48-1.5,13.44-2.25,20.9-2.25m0-5.67c-7.85,0-15.31.8-22.17,2.39-6.9,1.59-13.3,3.88-19.05,6.8-5.79,2.94-11.03,6.52-15.57,10.66-4.56,4.14-8.46,8.8-11.61,13.85-3.16,5.06-5.59,10.6-7.22,16.46-1.63,5.83-2.45,11.96-2.45,18.22,0,9.35,1.85,18.29,5.5,26.57,3.66,8.29,8.97,15.63,15.78,21.83,6.77,6.15,15.07,11.06,24.67,14.59,9.54,3.51,20.34,5.29,32.12,5.29,5.02,0,9.9-.32,14.49-.95,4.59-.63,8.96-1.52,12.99-2.64,4.02-1.12,7.81-2.42,11.27-3.86,3.49-1.46,6.73-3.06,9.61-4.76l4.59-2.72-2.43-4.75-7.02-13.71-2.53-4.93-4.99,2.41c-2.89,1.4-6.14,2.54-9.65,3.39-3.46.84-6.97,1.27-10.42,1.27-4.75,0-9.21-.88-13.24-2.6-4.01-1.72-7.51-4.17-10.4-7.3-2.93-3.16-5.28-7.06-6.97-11.6-1.71-4.59-2.58-9.84-2.58-15.61s.88-11.09,2.61-15.67c1.71-4.53,4.08-8.41,7.03-11.55,2.92-3.1,6.45-5.54,10.48-7.23,4.07-1.71,8.57-2.58,13.39-2.58,3.69,0,7.29.45,10.7,1.33,3.52.91,6.67,2.03,9.37,3.33l4.99,2.4,2.52-4.93,7.02-13.71,2.47-4.82-4.7-2.69c-2.86-1.63-6.07-3.2-9.55-4.67-3.51-1.48-7.35-2.79-11.43-3.92-4.08-1.12-8.49-2.01-13.1-2.64-4.62-.63-9.51-.95-14.52-.95h0Z"/>
    </g>
    <g>
      <path class="cls-1" d="m201.21,382.99v-55.57c0-2.04-.37-3.52-1.07-4.27-.65-.7-2.01-1.06-3.93-1.06-.96,0-1.92.15-2.87.44-1.06.33-2.09.76-3.08,1.27-1.02.53-1.99,1.14-2.9,1.81-.58.43-1.12.85-1.62,1.28v56.09h-50v-140.45h50v64.32c4.84-3.13,9.81-5.75,14.82-7.82,6.71-2.77,13.84-4.17,21.2-4.17,4.09,0,7.96.7,11.51,2.07,3.64,1.41,6.84,3.6,9.52,6.52,2.66,2.9,4.75,6.63,6.23,11.11,1.45,4.38,2.18,9.64,2.18,15.63v52.79h-50Z"/>
      <path class="cls-2" d="m182.9,245.38v66.86c6.09-4.41,12.34-7.93,18.73-10.57,6.39-2.64,13.1-3.96,20.12-3.96,3.76,0,7.25.63,10.49,1.88,3.24,1.25,6.05,3.18,8.45,5.8,2.39,2.61,4.27,5.97,5.63,10.08,1.36,4.11,2.04,9.02,2.04,14.74v49.96h-44.33v-52.74c0-2.83-.61-4.9-1.84-6.2-1.22-1.31-3.22-1.96-6-1.96-1.25,0-2.49.19-3.71.57-1.22.38-2.41.87-3.55,1.47-1.14.6-2.23,1.28-3.27,2.04-1.03.76-1.96,1.52-2.78,2.29v54.53h-44.33v-134.78h44.33m5.67-5.67h-55.67v146.12h55.67v-57.57c.15-.12.31-.24.47-.35.79-.58,1.64-1.12,2.53-1.58.83-.43,1.71-.8,2.61-1.08.68-.21,1.34-.31,2.03-.31,1.09,0,1.65.15,1.87.23.1.24.3.9.3,2.27v58.41h55.67v-55.63c0-6.29-.78-11.85-2.33-16.52-1.61-4.86-3.91-8.94-6.83-12.13-2.98-3.25-6.54-5.69-10.58-7.25-3.88-1.5-8.1-2.26-12.54-2.26-7.73,0-15.23,1.48-22.29,4.39-3.67,1.51-7.31,3.31-10.9,5.38v-62.1h0Z"/>
    </g>
    <g>
      <path class="cls-1" d="m300.29,384.54c-5.6,0-10.77-.75-15.36-2.22-4.63-1.49-8.65-3.55-11.95-6.14-3.36-2.64-6.01-5.82-7.87-9.47-1.89-3.68-2.84-7.73-2.84-12.03s.98-8.48,2.93-12.24c1.93-3.73,4.72-7.02,8.3-9.77,3.52-2.7,7.8-4.84,12.72-6.38,4.88-1.52,10.38-2.29,16.35-2.29s11.58.71,16.77,2.1c3.22.86,6.15,1.89,8.76,3.06-.19-1.77-.5-3.35-.93-4.73-.7-2.2-1.76-4-3.15-5.35-1.39-1.35-3.23-2.35-5.45-2.98-2.43-.69-5.37-1.04-8.74-1.04-3.15,0-6.46.28-9.83.82-3.35.54-6.47,1.33-9.28,2.35l-2.3.84-8.62-15.94,2.91-1.2c6.1-2.52,12.5-4.35,19.02-5.44,6.47-1.08,13.23-1.63,20.1-1.63,8.84,0,16.8.87,23.66,2.57,6.99,1.74,12.98,4.4,17.79,7.88,4.92,3.57,8.7,8.11,11.23,13.5,2.51,5.34,3.78,11.64,3.78,18.72v45.45h-46.23l-2.22-6.26c-.96.58-1.98,1.15-3.06,1.71-2.36,1.21-4.97,2.28-7.76,3.19-2.79.91-5.79,1.63-8.91,2.14-3.13.51-6.45.77-9.85.77Zm21.88-38.53c-2.94,0-5.12.66-6.5,1.96-1.37,1.29-2.01,2.88-2.01,5s.65,3.82,1.98,5.1c1.37,1.31,3.24,1.95,5.71,1.95,1.42,0,2.85-.24,4.23-.71.96-.32,1.87-.77,2.73-1.33v-10.66c-1.9-.88-3.92-1.31-6.15-1.31Z"/>
      <path class="cls-2" d="m321.84,297.71c8.65,0,16.31.83,22.98,2.49,6.67,1.66,12.27,4.14,16.82,7.43,4.54,3.29,7.99,7.43,10.33,12.41,2.34,4.98,3.51,10.82,3.51,17.51v42.61h-41.39l-2.78-7.84c-1.63,1.25-3.56,2.45-5.8,3.59-2.23,1.14-4.68,2.15-7.35,3.02-2.67.87-5.5,1.55-8.49,2.04-2.99.49-6.12.73-9.39.73-5.33,0-10.16-.69-14.49-2.08s-8.01-3.28-11.06-5.67c-3.05-2.39-5.42-5.24-7.1-8.53-1.69-3.29-2.53-6.87-2.53-10.73s.87-7.56,2.61-10.94c1.74-3.37,4.25-6.31,7.51-8.82,3.27-2.5,7.21-4.48,11.84-5.92,4.63-1.44,9.8-2.16,15.51-2.16s11.06.67,16.04,2c4.98,1.33,9.16,3.04,12.53,5.1v-.65c0-3.81-.42-7.05-1.27-9.71-.84-2.67-2.14-4.84-3.88-6.53-1.74-1.69-3.96-2.91-6.65-3.67-2.69-.76-5.86-1.14-9.51-1.14-3.32,0-6.75.29-10.29.86-3.54.57-6.8,1.4-9.8,2.49l-5.96-11.02c5.93-2.45,12.07-4.2,18.41-5.27,6.34-1.06,12.88-1.59,19.63-1.59m-.49,65.14c1.74,0,3.46-.29,5.14-.86,1.69-.57,3.24-1.43,4.65-2.57v-13.8c-2.72-1.63-5.71-2.45-8.98-2.45-3.7,0-6.52.91-8.45,2.73-1.93,1.82-2.9,4.18-2.9,7.06s.95,5.32,2.86,7.14c1.9,1.82,4.46,2.73,7.67,2.73m.49-70.81c-7.03,0-13.95.56-20.57,1.67-6.73,1.13-13.34,3.02-19.64,5.62l-5.82,2.4,2.99,5.54,5.96,11.02,2.33,4.3,4.6-1.67c2.65-.96,5.59-1.71,8.76-2.22,3.22-.52,6.38-.78,9.38-.78s5.79.31,7.97.93c1.79.51,3.18,1.26,4.25,2.29.92.9,1.64,2.05,2.19,3.5-1.33-.45-2.72-.87-4.16-1.25-5.44-1.46-11.33-2.19-17.51-2.19s-12.04.81-17.2,2.42c-5.24,1.63-9.82,3.93-13.6,6.83-3.92,3.01-6.98,6.61-9.1,10.72-2.15,4.17-3.24,8.72-3.24,13.54s1.06,9.24,3.15,13.32c2.05,4.01,4.96,7.51,8.65,10.4,3.56,2.8,7.88,5.03,12.83,6.61,4.87,1.56,10.32,2.35,16.22,2.35,3.55,0,7.02-.27,10.3-.81,3.27-.54,6.41-1.29,9.34-2.25,2.93-.96,5.68-2.09,8.17-3.36.07-.04.15-.07.22-.11l.43,1.2,1.34,3.78h51.06v-48.28c0-7.5-1.36-14.2-4.05-19.92-2.74-5.83-6.82-10.74-12.13-14.59-5.11-3.7-11.43-6.51-18.77-8.34-7.09-1.76-15.28-2.66-24.35-2.66h0Zm-.49,65.14c-2.28,0-3.23-.66-3.75-1.16-.55-.53-1.11-1.3-1.11-3.05,0-1.66.57-2.42,1.12-2.94,1.04-.98,3.05-1.19,4.56-1.19,1.17,0,2.27.15,3.31.44v7.02c-.26.12-.53.22-.8.31-1.11.38-2.19.56-3.32.56h0Z"/>
    </g>
    <g>
      <path class="cls-1" d="m517.21,382.99v-55.57c0-2.02-.38-3.48-1.11-4.22-.73-.75-1.87-1.11-3.48-1.11-.92,0-2.02.23-3.28.69-.96.35-1.94.81-2.95,1.4v58.82h-50v-55.57c0-2.03-.38-3.5-1.09-4.24-.7-.73-1.82-1.08-3.42-1.08-1.26,0-2.71.28-4.31.83-1.11.38-2.07.92-2.9,1.62v58.45h-50v-86.57h43.98l3.34,10.02c4.96-3.43,10.03-6.13,15.13-8.04,6.25-2.34,12.92-3.53,19.81-3.53,5.4,0,10.39,1.21,14.82,3.61,3.67,1.99,6.72,4.92,9.1,8.75,1.82-1.2,3.73-2.37,5.71-3.5,2.97-1.68,6.15-3.21,9.44-4.53,3.32-1.33,6.82-2.4,10.38-3.16,3.61-.77,7.41-1.17,11.29-1.17,4.08,0,7.97.69,11.54,2.07,3.67,1.41,6.89,3.6,9.57,6.53,2.65,2.9,4.75,6.63,6.23,11.11,1.45,4.38,2.19,9.64,2.19,15.63v52.79h-50Z"/>
      <path class="cls-2" d="m537.68,297.71c3.76,0,7.27.63,10.53,1.88,3.27,1.25,6.1,3.18,8.49,5.8s4.27,5.97,5.63,10.08c1.36,4.11,2.04,9.02,2.04,14.74v49.96h-44.33v-52.74c0-2.83-.64-4.9-1.92-6.2-1.28-1.31-3.12-1.96-5.51-1.96-1.25,0-2.67.29-4.25.86s-3.18,1.4-4.82,2.49v57.55h-44.33v-52.74c0-2.83-.63-4.9-1.88-6.2-1.25-1.31-3.07-1.96-5.47-1.96-1.58,0-3.32.33-5.22.98-1.91.65-3.51,1.69-4.82,3.1v56.82h-44.33v-80.9h39.1l3.92,11.75c5.77-4.41,11.63-7.73,17.59-9.96,5.96-2.23,12.23-3.35,18.82-3.35,4.95,0,9.44,1.09,13.47,3.27,4.03,2.18,7.18,5.63,9.47,10.37,2.5-1.8,5.2-3.51,8.08-5.14s5.92-3.09,9.1-4.37c3.18-1.28,6.49-2.29,9.92-3.02,3.43-.73,6.99-1.1,10.69-1.1m0-5.67c-4.08,0-8.07.41-11.88,1.23-3.72.8-7.37,1.91-10.84,3.3-3.41,1.37-6.7,2.95-9.78,4.69-1.2.68-2.38,1.38-3.53,2.1-2.36-3.11-5.21-5.58-8.53-7.37-4.85-2.62-10.29-3.95-16.17-3.95-7.23,0-14.23,1.25-20.81,3.71-4.25,1.59-8.47,3.7-12.62,6.3l-1.53-4.58-1.29-3.88h-48.86v92.24h55.67v-59.8c.31-.16.63-.3.99-.43,1.3-.45,2.44-.67,3.39-.67.88,0,1.26.15,1.35.2.08.16.33.79.33,2.29v58.41h55.66v-59.94c.36-.17.72-.32,1.08-.44,1.25-.45,1.99-.52,2.32-.52.89,0,1.31.16,1.43.24.11.2.33.9.33,2.26v58.41h55.67v-55.63c0-6.29-.78-11.85-2.33-16.52-1.61-4.86-3.91-8.94-6.84-12.13-2.98-3.25-6.56-5.69-10.64-7.26-3.91-1.5-8.13-2.25-12.56-2.25h0Z"/>
    </g>
    <g>
      <path class="cls-1" d="m657.19,384.54c-6.2,0-11.86-.8-16.82-2.38-3.55-1.13-6.75-2.54-9.54-4.21l-1.74,5.04h-45.42l-.08-140.37h50.08v60.45c.35-.24.71-.47,1.07-.7,2.22-1.41,4.7-2.7,7.36-3.81,2.68-1.12,5.59-2.03,8.67-2.69,3.1-.67,6.39-1,9.78-1,6.43,0,12.55.96,18.2,2.84,5.72,1.91,10.8,4.79,15.1,8.56,4.32,3.79,7.76,8.55,10.23,14.13,2.46,5.57,3.71,12.08,3.71,19.35,0,6.72-1.19,12.91-3.54,18.38-2.36,5.5-5.8,10.29-10.23,14.23-4.4,3.91-9.8,6.96-16.04,9.06-6.17,2.08-13.16,3.13-20.78,3.13Zm-23.53-22.05c.8.54,1.68.98,2.61,1.33,1.33.5,2.66.76,3.94.76,2.32,0,4.48-.43,6.42-1.27,1.91-.83,3.53-2.1,4.97-3.88,1.47-1.82,2.64-4.21,3.48-7.13.87-3.02,1.32-6.76,1.32-11.09s-.42-8.2-1.25-11.26c-.8-2.95-1.89-5.36-3.24-7.16-1.3-1.72-2.78-2.94-4.53-3.73-1.8-.81-3.82-1.22-6.02-1.22-1.65,0-3.22.29-4.68.86-1.09.43-2.1.94-3.02,1.53v42.26Z"/>
      <path class="cls-2" d="m630.83,245.46v63.51c1.52-1.47,3.33-2.87,5.43-4.2,2.09-1.33,4.41-2.53,6.94-3.59,2.53-1.06,5.25-1.9,8.16-2.53,2.91-.62,5.97-.94,9.18-.94,6.15,0,11.92.9,17.31,2.69s10.09,4.46,14.12,8c4.03,3.54,7.2,7.92,9.51,13.14,2.31,5.22,3.47,11.29,3.47,18.2,0,6.37-1.1,12.12-3.31,17.27-2.2,5.14-5.38,9.55-9.51,13.22-4.14,3.67-9.16,6.5-15.06,8.49-5.91,1.99-12.53,2.98-19.88,2.98-5.93,0-11.25-.75-15.96-2.25-4.71-1.5-8.67-3.47-11.88-5.92l-2.29,6.61h-40.57l-.08-134.7h44.41m9.39,121.96c2.72,0,5.24-.5,7.55-1.51,2.31-1.01,4.33-2.57,6.04-4.69,1.71-2.12,3.05-4.83,4-8.12.95-3.29,1.43-7.25,1.43-11.88s-.45-8.68-1.35-12c-.9-3.32-2.14-6.03-3.71-8.12-1.58-2.09-3.46-3.63-5.63-4.61-2.18-.98-4.57-1.47-7.18-1.47-2.01,0-3.92.35-5.71,1.06-1.8.71-3.4,1.61-4.82,2.69v45.14c1.31,1.09,2.79,1.95,4.45,2.57,1.66.63,3.31.94,4.94.94m-3.72-127.63h-55.75v5.67s.09,134.7.09,134.7v5.67h50.28l1.31-3.79c2.19,1.08,4.56,2.02,7.1,2.83,5.24,1.67,11.19,2.51,17.68,2.51,7.93,0,15.22-1.1,21.69-3.28,6.6-2.22,12.33-5.46,17.02-9.62,4.75-4.22,8.43-9.34,10.96-15.23,2.5-5.83,3.76-12.39,3.76-19.5,0-7.67-1.33-14.57-3.95-20.5-2.64-5.96-6.32-11.04-10.95-15.11-4.58-4.02-9.99-7.09-16.07-9.12-5.94-1.98-12.37-2.99-19.1-2.99-3.59,0-7.08.36-10.37,1.07-3.24.7-6.33,1.65-9.17,2.85-1.57.66-3.07,1.37-4.51,2.13v-58.29h0Zm0,82.1c.39-.2.8-.38,1.23-.54,1.14-.45,2.33-.67,3.64-.67,1.82,0,3.41.32,4.86.97,1.3.59,2.43,1.52,3.43,2.85,1.13,1.5,2.06,3.59,2.77,6.19.76,2.82,1.15,6.36,1.15,10.52s-.41,7.53-1.21,10.3c-.74,2.55-1.73,4.61-2.96,6.13-1.14,1.41-2.42,2.42-3.89,3.06-1.6.7-3.33,1.04-5.29,1.04-.95,0-1.91-.19-2.94-.57-.27-.1-.53-.21-.78-.33v-38.96h0Z"/>
    </g>
    <g>
      <path class="cls-1" d="m774.5,384.54c-10.15,0-19.07-1.21-26.5-3.61-7.5-2.42-13.82-5.72-18.78-9.82-5.03-4.16-8.81-9.05-11.24-14.55-2.41-5.45-3.63-11.27-3.63-17.31,0-5,.8-9.66,2.39-13.83,1.58-4.14,3.78-7.92,6.56-11.22,2.76-3.28,6.06-6.17,9.82-8.6,3.7-2.39,7.76-4.41,12.07-5.99,4.28-1.58,8.82-2.78,13.49-3.56,4.66-.79,9.43-1.18,14.19-1.18,6.29,0,12.11.65,17.29,1.92,5.19,1.28,9.9,3.05,13.99,5.28,4.11,2.24,7.73,4.9,10.76,7.9,3.02,2.99,5.56,6.22,7.55,9.59,2,3.39,3.5,6.94,4.46,10.55.96,3.6,1.44,7.17,1.44,10.61v2.51l-61.04,7.35c1.19,4,3.07,7.19,5.59,9.53,3.04,2.81,7.47,4.23,13.18,4.23,3.26,0,6.34-.4,9.15-1.2,2.74-.78,4.88-1.7,6.34-2.76l2.55-1.84,9.56,16.74-2.64,1.35c-2.09,1.08-4.39,2.1-6.84,3.06-2.47.97-5.23,1.82-8.21,2.53-2.94.7-6.23,1.27-9.79,1.69-3.55.42-7.5.63-11.72.63Zm.9-69.55c-1.31,0-2.47.3-3.57.93-1.08.62-2.05,1.65-2.88,3.06-.93,1.59-1.7,3.71-2.29,6.33-.43,1.93-.73,4.18-.88,6.73l17.28-2.14c-.18-5.27-.94-9.15-2.26-11.56-1.28-2.32-2.94-3.35-5.39-3.35Z"/>
      <path class="cls-2" d="m772.87,297.71c6.09,0,11.63.61,16.61,1.84,4.98,1.22,9.41,2.9,13.31,5.02,3.89,2.12,7.27,4.6,10.12,7.43,2.86,2.83,5.22,5.84,7.1,9.02,1.88,3.18,3.26,6.46,4.16,9.84.9,3.38,1.35,6.67,1.35,9.88l-61.71,7.43c1.2,6.04,3.59,10.72,7.18,14.04,3.59,3.32,8.62,4.98,15.1,4.98,3.54,0,6.84-.44,9.92-1.31,3.07-.87,5.48-1.93,7.22-3.18l6.53,11.43c-2.01,1.03-4.2,2.01-6.57,2.94-2.37.93-4.98,1.73-7.84,2.41-2.86.68-6.01,1.22-9.47,1.63-3.46.41-7.25.61-11.39.61-9.91,0-18.45-1.16-25.63-3.47-7.18-2.31-13.13-5.42-17.84-9.31-4.71-3.89-8.19-8.39-10.45-13.51-2.26-5.12-3.39-10.5-3.39-16.16,0-4.68.73-8.95,2.2-12.82,1.47-3.86,3.5-7.33,6.08-10.41,2.58-3.07,5.65-5.75,9.18-8.04,3.54-2.29,7.37-4.19,11.51-5.71,4.14-1.52,8.46-2.67,12.98-3.43,4.52-.76,9.09-1.14,13.71-1.14m-10.04,37.55l23.1-2.86c0-7.07-.88-12.22-2.65-15.43-1.77-3.21-4.4-4.82-7.88-4.82-1.8,0-3.46.44-4.98,1.31-1.52.87-2.83,2.23-3.92,4.08-1.09,1.85-1.96,4.23-2.61,7.14-.65,2.91-1.01,6.44-1.06,10.57m10.04-43.22c-4.92,0-9.85.41-14.66,1.22-4.84.82-9.55,2.06-14,3.7-4.5,1.66-8.75,3.77-12.63,6.27-3.99,2.58-7.51,5.66-10.45,9.15-2.98,3.55-5.35,7.6-7.04,12.04-1.71,4.49-2.57,9.48-2.57,14.83,0,6.43,1.3,12.64,3.87,18.45,2.61,5.9,6.65,11.15,12.02,15.59,5.24,4.33,11.87,7.81,19.71,10.33,7.71,2.48,16.92,3.74,27.37,3.74,4.34,0,8.39-.22,12.05-.65,3.67-.43,7.07-1.02,10.12-1.75,3.1-.74,5.99-1.63,8.59-2.64,2.53-.99,4.91-2.05,7.09-3.17l5.28-2.71-2.94-5.15-6.53-11.43-3.12-5.46-5.11,3.67c-.82.59-2.44,1.48-5.46,2.33-2.56.72-5.38,1.09-8.37,1.09-5.04,0-8.73-1.14-11.25-3.47-1.45-1.34-2.65-3.03-3.6-5.06l54.96-6.62,4.99-.6v-5.03c0-3.69-.52-7.5-1.54-11.34-1.03-3.86-2.63-7.64-4.76-11.26-2.12-3.59-4.81-7.01-8-10.17-3.22-3.19-7.06-6.01-11.4-8.38-4.3-2.35-9.24-4.21-14.67-5.55-5.4-1.33-11.44-2-17.97-2h0Zm-3.95,36.75c.13-1.03.3-1.99.5-2.86.52-2.32,1.18-4.18,1.97-5.51.58-.98,1.2-1.66,1.85-2.03.67-.38,1.36-.56,2.17-.56,1.22,0,2.04.3,2.91,1.88.55,1,1.39,3.21,1.76,7.7l-11.15,1.38h0Z"/>
    </g>
    <g>
      <path class="cls-1" d="m837.95,382.99v-86.57h43.98l3.35,10.05c2.02-1.41,3.98-2.68,5.84-3.8,2.84-1.72,5.65-3.18,8.34-4.34,2.75-1.18,5.45-2.06,8.04-2.62,2.61-.56,5.24-.84,7.82-.84,3.78,0,7.27.55,10.36,1.63,3.15,1.1,5.89,2.69,8.15,4.74,2.28,2.06,4.06,4.55,5.28,7.39,1.21,2.82,1.82,5.96,1.82,9.32s-.75,6.64-2.23,9.53c-1.47,2.88-3.63,5.4-6.42,7.47-2.71,2.02-6.06,3.6-9.94,4.7-3.8,1.07-8.16,1.62-12.97,1.62h-1.42l-14.29-19.09c-.89.12-1.84.36-2.85.72-1.08.38-2.02.92-2.84,1.63v58.46h-50Z"/>
      <path class="cls-2" d="m915.32,297.71c3.48,0,6.62.49,9.43,1.47,2.8.98,5.2,2.37,7.18,4.16,1.99,1.8,3.51,3.93,4.57,6.41,1.06,2.48,1.59,5.21,1.59,8.21s-.64,5.74-1.92,8.25c-1.28,2.5-3.14,4.67-5.59,6.49-2.45,1.82-5.46,3.24-9.02,4.25-3.57,1.01-7.63,1.51-12.2,1.51l-14.37-19.18c-1.58,0-3.29.33-5.14.98-1.85.65-3.43,1.69-4.74,3.1v56.82h-44.33v-80.9h39.1l3.92,11.75c3.1-2.29,6.03-4.26,8.78-5.92s5.42-3.05,8-4.16c2.58-1.11,5.09-1.93,7.51-2.45,2.42-.52,4.83-.78,7.22-.78m0-5.67c-2.78,0-5.61.3-8.41.9-2.77.59-5.66,1.53-8.57,2.79-2.81,1.22-5.74,2.73-8.69,4.52-.93.56-1.89,1.16-2.86,1.8l-1.52-4.57-1.29-3.88h-48.86v92.24h55.67v-59.82c.3-.16.62-.3.95-.42.25-.09.49-.17.73-.24l12.35,16.5,1.7,2.27h2.84c5.07,0,9.7-.58,13.75-1.72,4.21-1.19,7.87-2.92,10.86-5.15,3.14-2.34,5.58-5.18,7.25-8.46,1.69-3.3,2.54-6.94,2.54-10.82s-.69-7.26-2.05-10.44c-1.38-3.22-3.39-6.04-5.98-8.38-2.54-2.3-5.61-4.08-9.12-5.31-3.39-1.19-7.2-1.79-11.3-1.79h0Z"/>
    </g>
  </g>
  <g>
    <path class="cls-4" d="m230.5,427.11c0-2.71.43-5.2,1.3-7.46.87-2.26,2.16-4.2,3.88-5.82,1.72-1.62,3.86-2.88,6.43-3.78s5.56-1.35,8.96-1.35,6.39.45,8.96,1.35,4.71,2.16,6.43,3.78c1.72,1.62,3.01,3.56,3.88,5.82.87,2.26,1.3,4.74,1.3,7.46s-.43,5.26-1.3,7.54c-.87,2.28-2.16,4.23-3.88,5.85-1.72,1.62-3.86,2.88-6.43,3.78s-5.56,1.35-8.96,1.35-6.39-.45-8.96-1.35-4.71-2.16-6.43-3.78c-1.72-1.62-3.01-3.57-3.88-5.85-.87-2.28-1.3-4.79-1.3-7.54Zm20.58,13.54c.96,0,1.81-.17,2.55-.51.74-.34,1.36-1,1.85-1.98.5-.98.88-2.35,1.13-4.12s.39-4.08.39-6.94-.13-5.12-.39-6.87c-.26-1.75-.63-3.11-1.13-4.07-.5-.96-1.12-1.61-1.85-1.95-.74-.34-1.59-.51-2.55-.51s-1.82.17-2.57.51c-.75.34-1.37.99-1.87,1.95-.5.96-.88,2.32-1.13,4.07-.26,1.75-.39,4.04-.39,6.87s.13,5.17.39,6.94c.26,1.77.63,3.14,1.13,4.12.5.98,1.12,1.64,1.87,1.98.75.34,1.6.51,2.57.51Z"/>
    <path class="cls-4" d="m278.42,425.18h-2.65v-3.98h2.65v-2.51c0-2.33.35-4.36,1.04-6.08.69-1.73,1.67-3.16,2.93-4.29,1.26-1.13,2.78-1.98,4.57-2.54,1.78-.56,3.77-.84,5.98-.84,1.59,0,3.03.17,4.32.49,1.29.33,2.4.78,3.31,1.36.92.58,1.63,1.26,2.13,2.04.51.78.76,1.62.76,2.52,0,.85-.16,1.61-.48,2.26-.32.66-.75,1.22-1.28,1.69-.53.47-1.14.82-1.82,1.06s-1.39.36-2.11.36l-6.26-8.53v13.01h6.99l-2.48,3.98h-4.51v19.9h-13.08v-19.9Z"/>
    <path class="cls-4" d="m317.31,433.13c0-1.62.34-3.18,1.02-4.67s1.71-2.81,3.1-3.95c1.38-1.14,3.13-2.05,5.24-2.73,2.11-.68,4.6-1.02,7.46-1.02,2.06,0,3.81.2,5.28.59s2.66.91,3.59,1.55,1.61,1.37,2.05,2.19c.43.82.65,1.65.65,2.51,0,.66-.15,1.29-.46,1.88-.31.59-.71,1.12-1.23,1.58-.51.46-1.12.82-1.81,1.1-.69.27-1.42.41-2.19.41l-6.12-8.36c-.45.4-.86.88-1.24,1.42-.38.55-.71,1.17-.99,1.87-.28.7-.5,1.48-.65,2.34s-.23,1.8-.23,2.83c0,1.43.18,2.68.53,3.76.35,1.08.83,1.97,1.45,2.69.61.71,1.34,1.25,2.18,1.61s1.76.54,2.76.54c.48,0,.97-.04,1.46-.11.49-.07.96-.17,1.4-.29.44-.12.85-.26,1.22-.42.37-.16.68-.33.94-.51l1.93,3.37c-.59.31-1.24.59-1.94.87-.7.27-1.47.51-2.31.71-.84.2-1.77.36-2.78.48-1.01.12-2.12.18-3.33.18-2.89,0-5.4-.34-7.53-1.02-2.13-.68-3.89-1.59-5.29-2.73s-2.44-2.46-3.12-3.95-1.02-3.06-1.02-4.7Z"/>
    <path class="cls-4" d="m348.7,433.15c0-1.9.39-3.61,1.17-5.13.78-1.53,1.9-2.83,3.37-3.9s3.26-1.91,5.38-2.49c2.12-.59,4.53-.88,7.23-.88s5.11.29,7.23.88c2.12.59,3.92,1.42,5.38,2.49s2.59,2.38,3.37,3.9c.78,1.53,1.17,3.24,1.17,5.13s-.39,3.58-1.17,5.11c-.78,1.53-1.9,2.83-3.37,3.9s-3.26,1.91-5.38,2.49-4.53.88-7.23.88-5.11-.29-7.23-.88-3.92-1.42-5.38-2.49-2.59-2.38-3.37-3.9c-.78-1.53-1.17-3.23-1.17-5.11Zm17.15,7.97c.59,0,1.12-.12,1.59-.36s.85-.66,1.16-1.26c.31-.6.54-1.42.7-2.45.16-1.03.24-2.33.24-3.9s-.08-2.9-.24-3.93c-.16-1.03-.39-1.84-.7-2.45s-.69-1.02-1.16-1.26-1-.36-1.59-.36-1.14.12-1.6.36c-.46.24-.84.66-1.14,1.26s-.54,1.42-.7,2.45c-.16,1.03-.24,2.34-.24,3.93s.08,2.88.24,3.9c.16,1.03.39,1.84.7,2.45.31.6.69,1.02,1.14,1.26.46.24.99.36,1.6.36Z"/>
    <path class="cls-4" d="m388.19,421.2h11.54l1.16,3.47c1.7-1.3,3.43-2.28,5.19-2.94,1.76-.66,3.61-.99,5.55-.99,1.46,0,2.79.32,3.98.96s2.12,1.66,2.79,3.06c.74-.53,1.53-1.04,2.38-1.52s1.75-.91,2.69-1.29c.94-.38,1.92-.67,2.93-.89,1.01-.22,2.06-.33,3.16-.33s2.14.18,3.11.55c.96.37,1.8.94,2.51,1.71.71.77,1.26,1.76,1.66,2.98s.6,2.66.6,4.35v14.75h-13.08v-15.56c0-.83-.19-1.45-.57-1.83-.38-.38-.92-.58-1.63-.58-.37,0-.79.08-1.25.25-.47.17-.94.41-1.42.74v16.99h-13.08v-15.56c0-.83-.19-1.45-.55-1.83-.37-.38-.91-.58-1.61-.58-.47,0-.98.1-1.54.29-.56.19-1.04.5-1.42.92v16.77h-13.08v-23.88Z"/>
    <path class="cls-4" d="m443.94,421.2h11.54l1.16,3.47c1.7-1.3,3.43-2.28,5.19-2.94,1.76-.66,3.61-.99,5.55-.99,1.46,0,2.79.32,3.98.96s2.12,1.66,2.79,3.06c.74-.53,1.53-1.04,2.38-1.52s1.75-.91,2.69-1.29c.94-.38,1.92-.67,2.93-.89,1.01-.22,2.06-.33,3.16-.33s2.14.18,3.11.55c.96.37,1.8.94,2.51,1.71.71.77,1.26,1.76,1.66,2.98s.6,2.66.6,4.35v14.75h-13.08v-15.56c0-.83-.19-1.45-.57-1.83-.38-.38-.92-.58-1.63-.58-.37,0-.79.08-1.25.25-.47.17-.94.41-1.42.74v16.99h-13.08v-15.56c0-.83-.19-1.45-.55-1.83-.37-.38-.91-.58-1.61-.58-.47,0-.98.1-1.54.29-.56.19-1.04.5-1.42.92v16.77h-13.08v-23.88Z"/>
    <path class="cls-4" d="m498.13,433.01c0-1.38.22-2.64.65-3.78.43-1.14,1.03-2.16,1.79-3.07.76-.91,1.67-1.7,2.71-2.37,1.04-.67,2.18-1.24,3.4-1.69,1.22-.45,2.5-.79,3.83-1.01,1.33-.23,2.68-.34,4.05-.34,1.8,0,3.43.18,4.9.54s2.78.86,3.93,1.48c1.15.63,2.14,1.36,2.99,2.19.84.83,1.54,1.72,2.1,2.66.55.94.96,1.91,1.23,2.9.27,1,.4,1.97.4,2.92l-18.21,2.19c.35,1.78,1.06,3.16,2.12,4.14,1.06.98,2.55,1.47,4.46,1.47,1.04,0,2.02-.13,2.93-.38.91-.26,1.62-.57,2.13-.94l1.93,3.37c-.59.31-1.24.59-1.94.87-.7.27-1.47.51-2.31.71-.84.2-1.77.36-2.79.48-1.02.12-2.14.18-3.36.18-2.92,0-5.45-.34-7.57-1.02s-3.88-1.6-5.26-2.75c-1.39-1.15-2.42-2.48-3.08-3.99-.67-1.51-1-3.1-1-4.77Zm20.29-2.02c0-2.09-.26-3.61-.78-4.55-.52-.95-1.3-1.42-2.33-1.42-.53,0-1.02.13-1.47.39s-.83.66-1.16,1.2c-.32.55-.58,1.25-.77,2.11-.19.86-.3,1.9-.31,3.12l6.82-.84Z"/>
    <path class="cls-4" d="m534.6,421.2h11.54l1.16,3.47c.92-.67,1.78-1.26,2.59-1.75.81-.49,1.6-.9,2.36-1.23s1.5-.57,2.22-.72c.71-.15,1.43-.23,2.13-.23,1.03,0,1.96.14,2.78.43s1.53.7,2.12,1.23c.59.53,1.04,1.16,1.35,1.89.31.73.47,1.54.47,2.42s-.19,1.69-.57,2.43c-.38.74-.93,1.38-1.65,1.92-.72.54-1.61.96-2.66,1.25-1.05.3-2.25.45-3.6.45l-4.24-5.66c-.47,0-.97.1-1.52.29-.55.19-1.01.5-1.4.92v16.77h-13.08v-23.88Z"/>
    <path class="cls-4" d="m565.47,433.13c0-1.62.34-3.18,1.02-4.67s1.71-2.81,3.1-3.95c1.38-1.14,3.13-2.05,5.24-2.73s4.6-1.02,7.46-1.02c2.06,0,3.81.2,5.28.59s2.66.91,3.59,1.55,1.61,1.37,2.05,2.19.65,1.65.65,2.51c0,.66-.15,1.29-.46,1.88-.31.59-.71,1.12-1.23,1.58-.51.46-1.12.82-1.81,1.1-.69.27-1.42.41-2.19.41l-6.12-8.36c-.45.4-.86.88-1.24,1.42-.38.55-.71,1.17-.99,1.87-.28.7-.5,1.48-.65,2.34s-.23,1.8-.23,2.83c0,1.43.18,2.68.53,3.76.35,1.08.83,1.97,1.45,2.69.61.71,1.34,1.25,2.18,1.61.84.36,1.76.54,2.76.54.48,0,.97-.04,1.46-.11s.96-.17,1.4-.29c.44-.12.85-.26,1.22-.42.37-.16.68-.33.94-.51l1.93,3.37c-.59.31-1.24.59-1.94.87-.7.27-1.47.51-2.31.71-.84.2-1.77.36-2.78.48-1.01.12-2.12.18-3.33.18-2.89,0-5.4-.34-7.53-1.02-2.13-.68-3.89-1.59-5.29-2.73s-2.44-2.46-3.12-3.95-1.02-3.06-1.02-4.7Z"/>
    <path class="cls-4" d="m596.86,433.01c0-1.38.22-2.64.65-3.78.43-1.14,1.03-2.16,1.79-3.07s1.67-1.7,2.71-2.37c1.04-.67,2.18-1.24,3.4-1.69,1.22-.45,2.5-.79,3.83-1.01,1.33-.23,2.68-.34,4.05-.34,1.8,0,3.43.18,4.9.54s2.78.86,3.93,1.48c1.15.63,2.14,1.36,2.99,2.19.84.83,1.54,1.72,2.1,2.66.55.94.96,1.91,1.23,2.9s.4,1.97.4,2.92l-18.21,2.19c.35,1.78,1.06,3.16,2.12,4.14,1.06.98,2.54,1.47,4.46,1.47,1.04,0,2.02-.13,2.93-.38s1.62-.57,2.13-.94l1.93,3.37c-.59.31-1.24.59-1.94.87-.7.27-1.47.51-2.31.71-.84.2-1.78.36-2.79.48-1.02.12-2.14.18-3.36.18-2.92,0-5.44-.34-7.56-1.02s-3.88-1.6-5.26-2.75-2.42-2.48-3.08-3.99-1-3.1-1-4.77Zm20.29-2.02c0-2.09-.26-3.61-.78-4.55-.52-.95-1.3-1.42-2.33-1.42-.53,0-1.02.13-1.47.39-.45.26-.83.66-1.16,1.2-.32.55-.58,1.25-.77,2.11-.19.86-.3,1.9-.31,3.12l6.82-.84Z"/>
  </g>
</svg>