<svg xmlns="http://www.w3.org/2000/svg" viewBox="0 0 1454.5 399.6">
	<path fill="#005A9C" d="M450.4 268.5v-2.7c3.1-.1 5.2-.5 6.5-1.3 2-1.1 3-3.2 3-6.3v-51.8c0-3.1-1-5.2-3.1-6.3-1.2-.7-3.3-1.1-6.4-1.3v-2.7H512v21.6h-2.6c-1.4-6.9-3.7-11.6-6.9-14.2-3.2-2.5-9.2-3.8-17.8-3.8-3.3 0-5.4.3-6.3 1-.9.7-1.3 2-1.3 4v24.8c6.1.1 10.2-1 12.4-3.3 2.2-2.3 3.8-6.5 5-12.5h2.7v36.2h-2.7c-.8-6.1-2.3-10.4-4.7-12.9-2.3-2.5-6.5-3.8-12.6-3.8v25.9c0 2.3.6 3.8 1.7 4.6 1.2.8 3.6 1.2 7.2 1.2 6.8 0 12.4-1.3 16.7-4 4.3-2.6 8.1-7.6 11.5-14.9h3l-4.3 22.3h-62.6zM521.8 265.9c1.9-.5 3.2-1 4-1.8.8-.8 1.2-2.3 1.2-4.7v-54.5c0-2.3-.4-3.7-1.1-4.4-.7-.7-2.1-1.3-4.1-1.7v-2.6h20.3v63.3c0 2.4.4 3.9 1.1 4.7.8.7 2.1 1.3 4.1 1.8v2.6h-25.5v-2.7z" />
	<path fill-rule="evenodd" clip-rule="evenodd" fill="#005A9C" d="M558.7 224.8c4.4-4.6 9.7-6.8 15.8-6.8 3.5 0 6.8.9 9.9 2.8 3.1 1.8 5.5 4.4 7.2 7.7 1.3 2.5 2.1 5.7 2.6 9.6.2 1.8.4 3.3.4 4.2h-27.3c.2 4.3.9 8 2.1 11.1 2.1 5.9 5.8 8.8 11 8.8 2.5 0 4.9-.8 7.1-2.4 1.4-.9 3-2.5 5.1-4.8l2.5 1.5c-3.3 5.4-7.1 9.2-11.5 11.3-2.8 1.4-6.1 2-9.7 2-5.3 0-10.2-2.1-14.8-6.2-4.6-4.1-6.9-10.8-6.9-19.9 0-8 2.2-14.4 6.5-18.9m22.8 13.5c-.1-6.3-.6-10.7-1.5-13.2s-2.7-3.8-5.4-3.8c-2.8 0-4.7 1.4-5.7 4.3s-1.6 7.1-1.7 12.6h14.3z" />
	<path fill="#005A9C" d="M636.5 221.1c3.3 2.2 5 5 5 8.5 0 1.8-.7 3.5-2 4.8-1.3 1.4-2.9 2-5 2-1.4 0-2.5-.3-3.6-.9-1.9-1.1-2.9-3.1-2.9-6.1 0-.3 0-.8.1-1.4 0-.6 0-1.3.1-2 0-1.9-.4-3.2-1.3-3.9-.9-.7-1.9-1-3.1-1-3.3 0-5.7 1.8-7.1 5.5-1.4 3.6-2.1 7.8-2.1 12.5 0 6.7 1.3 12.3 4 16.8 2.6 4.5 6.2 6.8 10.7 6.8 2.8 0 5.2-.6 7.2-1.9 1.2-.7 2.6-2.1 4.4-4l2 1.8c-3.5 4.8-7.6 8.2-12.2 10-2.5.9-5.1 1.4-7.9 1.4-6.9 0-12.5-2.5-16.8-7.4-4.4-4.9-6.5-10.9-6.5-18 0-7.5 2.3-13.8 6.9-19 4.6-5.3 10.8-7.9 18.5-7.9 4.5.1 8.4 1.2 11.6 3.4M646.5 223.9v-3c.9-.9 2.1-1.9 3.5-3.1 1.8-1.7 3.6-3.5 5.2-5.3 3.2-3.6 6.2-7.4 8.8-11.4h2.7v18.1H677v4.7h-10.2v32.2c0 1.5.2 2.8.7 3.8.7 1.6 1.8 2.4 3.4 2.4 1.4 0 2.6-.5 3.5-1.5.9-1 1.9-2.4 2.8-4.1l2.6 1.3c-1.3 2.9-2.8 5.3-4.5 7.2-3.1 3.2-6.8 4.9-11.2 4.9-2.5 0-4.7-.5-6.6-1.4-3.6-1.8-5.4-5.1-5.4-9.9v-34.7h-5.6zM682.4 265.9c2.1-.2 3.5-.7 4.3-1.5.8-.7 1.2-2.1 1.3-4.2l.1-3.1V228c0-2.2-.4-3.7-1.1-4.5-.8-.8-2.3-1.3-4.5-1.6v-2.6h20.3v8.4c2.3-3 4.5-5.3 6.7-7.1 2.2-1.7 4.8-2.6 7.7-2.6 2.2 0 4.2.7 5.9 2.1 1.8 1.4 2.7 3.4 2.7 6.2 0 2.1-.6 3.8-1.9 5.2-1.2 1.4-2.8 2-4.8 2-2.3 0-4.2-1.1-5.9-3.2-1.6-2.1-2.8-3.2-3.4-3.2-1.4 0-2.9.9-4.3 2.7-1.4 1.7-2.1 4.3-2.1 7.5v20.2c0 3.6.5 5.8 1.5 6.7 1 .9 3.1 1.4 6.2 1.7v2.6h-28.5v-2.6z" />
	<path fill-rule="evenodd" clip-rule="evenodd" fill="#005A9C" d="M736.7 197c1.6-1.6 3.6-2.5 5.9-2.5 2.3 0 4.2.8 5.8 2.5 1.6 1.6 2.5 3.6 2.5 5.9 0 2.3-.8 4.3-2.5 5.9-1.6 1.6-3.5 2.4-5.8 2.4s-4.3-.8-5.9-2.4c-1.6-1.6-2.4-3.6-2.4-5.9 0-2.4.8-4.3 2.4-5.9m-7.1 68.9c1.9-.3 3.2-.8 3.9-1.4 1-.9 1.6-2.6 1.6-5.1V228c0-2.2-.4-3.6-1.1-4.4-.7-.8-2.2-1.4-4.3-1.8v-2.6h20.5v40.6c0 2.3.3 3.8 1 4.5.7.7 2 1.2 3.9 1.6v2.6h-25.5v-2.6z" />
	<path fill="#005A9C" d="M796.9 221.1c3.3 2.2 5 5 5 8.5 0 1.8-.7 3.5-2 4.8-1.3 1.4-2.9 2-5 2-1.4 0-2.5-.3-3.6-.9-1.9-1.1-2.9-3.1-2.9-6.1 0-.3 0-.8.1-1.4 0-.6 0-1.3.1-2 0-1.9-.4-3.2-1.3-3.9-.9-.7-1.9-1-3.1-1-3.3 0-5.7 1.8-7.1 5.5-1.4 3.6-2.1 7.8-2.1 12.5 0 6.7 1.3 12.3 4 16.8 2.6 4.5 6.2 6.8 10.7 6.8 2.8 0 5.2-.6 7.2-1.9 1.2-.7 2.6-2.1 4.4-4l2 1.8c-3.5 4.8-7.6 8.2-12.2 10-2.5.9-5.1 1.4-7.9 1.4-6.9 0-12.5-2.5-16.8-7.4-4.4-4.9-6.5-10.9-6.5-18 0-7.5 2.3-13.8 6.9-19 4.6-5.3 10.8-7.9 18.5-7.9 4.4.1 8.3 1.2 11.6 3.4M886.8 197.3c4.6 1.6 7.1 2.5 7.6 2.5 1.4 0 2.4-.5 3.2-1.6.8-1 1.4-2.1 1.6-3.3h3v25h-2.7c-2.6-5.4-5.2-9.7-7.9-12.9-5-5.8-10.7-8.7-17-8.7-7.2 0-12.3 3.1-15.3 9.3-3 6.2-4.5 14.5-4.5 24.9 0 7.7.9 14 2.7 18.9 3.3 9.3 9.5 13.9 18.4 13.9 5.5 0 10.6-1.5 15.4-4.6 2.7-1.8 5.9-4.6 9.6-8.5l3.2 2.6c-4.2 4.7-7.9 8-11 10.1-5.6 3.7-11.9 5.6-18.8 5.6-10.6 0-19.4-3.1-26.5-9.4-7.9-6.9-11.9-16.3-11.9-28 0-11.6 3.8-21.1 11.3-28.3 7.1-6.8 15.8-10.1 26.1-10.1 4.4.1 8.9.9 13.5 2.6" />
	<path fill-rule="evenodd" clip-rule="evenodd" fill="#005A9C" d="M918.4 225.3c4.6-5 10.4-7.5 17.3-7.5 7.1 0 12.8 2.5 17.3 7.6s6.8 11.3 6.8 18.5c0 7.1-2.2 13.3-6.7 18.4-4.5 5.1-10.3 7.7-17.4 7.7-7 0-12.7-2.5-17.3-7.5-4.6-5-6.8-11.2-6.8-18.7-.1-7.3 2.2-13.5 6.8-18.5m10 34.4c1.2 4.6 3.6 6.9 7.3 6.9 3.4 0 5.7-1.8 6.8-5.3 1.1-3.6 1.6-9.3 1.6-17.3s-.6-13.7-1.7-17.3c-1.1-3.6-3.3-5.4-6.6-5.4-3.6 0-6 2.3-7.3 6.9-.8 3.1-1.2 8.3-1.2 15.7-.1 7.5.3 12.8 1.1 15.8M971.9 225.3c4.6-5 10.4-7.5 17.3-7.5 7.1 0 12.8 2.5 17.3 7.6s6.8 11.3 6.8 18.5c0 7.1-2.2 13.3-6.7 18.4-4.5 5.1-10.3 7.7-17.4 7.7-7 0-12.7-2.5-17.3-7.5-4.6-5-6.8-11.2-6.8-18.7-.1-7.3 2.2-13.5 6.8-18.5m10 34.4c1.2 4.6 3.6 6.9 7.3 6.9 3.4 0 5.7-1.8 6.8-5.3 1.1-3.6 1.6-9.3 1.6-17.3s-.6-13.7-1.7-17.3c-1.1-3.6-3.3-5.4-6.6-5.4-3.6 0-6 2.3-7.3 6.9-.8 3.1-1.2 8.3-1.2 15.7-.1 7.5.3 12.8 1.1 15.8M1055.3 256.3c.7-2.8 1.1-6.9 1.1-12.2 0-6.1-.6-11-1.7-14.6-1.1-3.7-3.4-5.5-6.8-5.5-2.3 0-4.4 1-6.2 3-1.8 2-2.7 3.5-2.7 4.4v26c0 1 .9 2.4 2.6 4.1 1.7 1.6 3.7 2.5 5.9 2.5 3.8 0 6.4-2.5 7.8-7.7m-37.2 31.6c2.3-.2 3.9-.8 4.7-1.6.8-.8 1.3-2.3 1.3-4.6V228c0-2.2-.4-3.7-1.2-4.5-.8-.8-2.3-1.4-4.5-1.7v-2.6h20.4v7.1c1.5-2.4 2.9-4.2 4.3-5.4 2.5-2 5.7-3 9.6-3 5.6 0 10.3 2.1 13.9 6.3 3.7 4.2 5.6 10.5 5.6 18.9 0 7.8-2 14.2-6 19.3-4 5.1-8.8 7.6-14.5 7.6-2.9 0-5.7-.9-8.3-2.6-1.4-.9-2.8-2.2-4.3-3.9v9c0 4.8.1 7.5.1 8.1.2 2.8 1 4.8 2.1 5.8 1.2 1 3.2 1.7 6.1 1.8v2.2h-29.3v-2.5zM1084.6 224.8c4.4-4.6 9.7-6.8 15.8-6.8 3.5 0 6.8.9 9.9 2.8 3.1 1.8 5.5 4.4 7.2 7.7 1.3 2.5 2.1 5.7 2.6 9.6.2 1.8.4 3.3.4 4.2h-27.3c.2 4.3.9 8 2.1 11.1 2.1 5.9 5.8 8.8 11 8.8 2.5 0 4.9-.8 7.1-2.4 1.4-.9 3-2.5 5.1-4.8l2.5 1.5c-3.3 5.4-7.1 9.2-11.5 11.3-2.8 1.4-6.1 2-9.7 2-5.3 0-10.2-2.1-14.8-6.2-4.6-4.1-6.9-10.8-6.9-19.9 0-8 2.1-14.4 6.5-18.9m22.7 13.5c-.1-6.3-.6-10.7-1.5-13.2s-2.7-3.8-5.4-3.8c-2.8 0-4.7 1.4-5.7 4.3s-1.6 7.1-1.7 12.6h14.3z" />
	<path fill="#005A9C" d="M1125.1 265.9c2.1-.2 3.5-.7 4.3-1.5.8-.7 1.2-2.1 1.3-4.2l.1-3.1V228c0-2.2-.4-3.7-1.1-4.5-.8-.8-2.3-1.3-4.5-1.6v-2.6h20.3v8.4c2.3-3 4.5-5.3 6.7-7.1 2.2-1.7 4.8-2.6 7.7-2.6 2.2 0 4.2.7 5.9 2.1 1.8 1.4 2.7 3.4 2.7 6.2 0 2.1-.6 3.8-1.9 5.2-1.2 1.4-2.8 2-4.8 2-2.3 0-4.2-1.1-5.9-3.2-1.6-2.1-2.8-3.2-3.4-3.2-1.4 0-2.9.9-4.3 2.7-1.4 1.7-2.1 4.3-2.1 7.5v20.2c0 3.6.5 5.8 1.5 6.7 1 .9 3.1 1.4 6.2 1.7v2.6h-28.5v-2.6z" />
	<path fill-rule="evenodd" clip-rule="evenodd" fill="#005A9C" d="M1199 260.8c.8-.6 1.8-1.6 3-2.9v-15.6c-2.9.7-5.4 1.8-7.5 3.3-3.7 2.5-5.5 5.8-5.5 9.7 0 2.3.5 4.1 1.6 5.3 1.1 1.2 2.3 1.8 3.6 1.8 1.6-.1 3.3-.6 4.8-1.6m-18.7-13.8c4.6-2.8 11.9-5.7 21.8-8.5v-7.8c0-3.2-.7-5.5-2-7s-3.7-2.3-7.1-2.3c-1.9 0-3.5.4-4.8 1.1-1.2.7-1.8 1.6-1.8 2.7 0 .4.1.8.2 1 .1.3.3.6.6.9l.6.7c.5.6.9 1.3 1.1 2 .3.7.5 1.4.5 2.2 0 2-.7 3.6-2 4.7s-2.9 1.6-4.7 1.6c-2.1 0-3.8-.6-5.3-1.8-1.4-1.2-2.1-3-2.1-5.3 0-4.1 1.9-7.4 5.8-9.8 3.9-2.4 8.6-3.6 14.3-3.6 6.1 0 11.1 1.2 15.2 3.5 4 2.4 6.1 6.7 6.1 13.1v25.9c0 .8.2 1.4.6 2 .4.5.9.8 1.4.8.4 0 .8-.1 1.1-.2.3-.2.9-.6 1.6-1.3l1.6 2.2c-2.1 2.4-4.4 4.1-6.9 5.1-1.6.6-3.3.9-5.1.9-3.2 0-5.5-.9-7-2.8-.8-1-1.4-2.6-1.8-4.6-3 3-6.3 5.1-10 6.3-2.3.8-4.5 1.2-6.7 1.2-2.9 0-5.7-.9-8.2-2.8-2.5-1.9-3.8-4.8-3.8-8.7-.1-4.7 2.2-8.5 6.8-11.4" />
	<path fill="#005A9C" d="M1225.9 223.9v-3c.9-.9 2.1-1.9 3.5-3.1 1.8-1.7 3.6-3.5 5.2-5.3 3.2-3.6 6.2-7.4 8.8-11.4h2.7v18.1h10.2v4.7h-10.2v32.2c0 1.5.2 2.8.7 3.8.7 1.6 1.8 2.4 3.4 2.4 1.4 0 2.6-.5 3.5-1.5.9-1 1.9-2.4 2.8-4.1l2.6 1.3c-1.3 2.9-2.8 5.3-4.5 7.2-3.1 3.2-6.8 4.9-11.2 4.9-2.5 0-4.7-.5-6.6-1.4-3.6-1.8-5.4-5.1-5.4-9.9v-34.7h-5.5z" />
	<path fill-rule="evenodd" clip-rule="evenodd" fill="#005A9C" d="M1268.6 197c1.6-1.6 3.6-2.5 5.9-2.5 2.3 0 4.2.8 5.8 2.5 1.6 1.6 2.5 3.6 2.5 5.9 0 2.3-.8 4.3-2.5 5.9-1.6 1.6-3.5 2.4-5.8 2.4s-4.3-.8-5.9-2.4c-1.6-1.6-2.4-3.6-2.4-5.9 0-2.4.8-4.3 2.4-5.9m-7.1 68.9c1.9-.3 3.2-.8 3.9-1.4 1-.9 1.6-2.6 1.6-5.1V228c0-2.2-.4-3.6-1.1-4.4-.7-.8-2.2-1.4-4.3-1.8v-2.6h20.5v40.6c0 2.3.3 3.8 1 4.5.7.7 2 1.2 3.9 1.6v2.6h-25.5v-2.6z" />
	<path fill="#005A9C" d="M1318 219.2v2.6c-1.9.1-3.3.3-4.3.6-.9.4-1.4 1.1-1.4 2.2 0 .3.1.8.4 1.6.3.7.5 1.3.6 1.6l8 20.5h.8l7.2-18.3c.3-.9.6-1.8.8-2.7.2-.9.4-1.6.4-2.1 0-1.5-.5-2.4-1.5-2.8-1-.4-2.5-.6-4.4-.7v-2.6h16.2v2.6c-1.4.1-2.6.6-3.5 1.4-.9.8-1.8 2.3-2.7 4.4l-17.2 42.4h-2.7l-12.9-31.7c-.9-2.2-1.8-4.3-2.7-6.3-.8-1.9-1.7-3.8-2.7-5.7-1-1.9-1.7-3.1-2.3-3.6-.6-.5-1.6-.8-3-.9v-2.6h26.9z" />
	<path fill-rule="evenodd" clip-rule="evenodd" fill="#005A9C" d="M1351.9 224.8c4.4-4.6 9.7-6.8 15.8-6.8 3.5 0 6.8.9 9.9 2.8 3.1 1.8 5.5 4.4 7.2 7.7 1.3 2.5 2.1 5.7 2.6 9.6.2 1.8.4 3.3.4 4.2h-27.3c.2 4.3.9 8 2.1 11.1 2.1 5.9 5.8 8.8 11 8.8 2.5 0 4.9-.8 7.1-2.4 1.4-.9 3-2.5 5.1-4.8l2.5 1.5c-3.3 5.4-7.1 9.2-11.5 11.3-2.8 1.4-6.1 2-9.7 2-5.3 0-10.2-2.1-14.8-6.2-4.6-4.1-6.9-10.8-6.9-19.9 0-8 2.2-14.4 6.5-18.9m22.8 13.5c-.1-6.3-.6-10.7-1.5-13.2s-2.7-3.8-5.4-3.8c-2.8 0-4.7 1.4-5.7 4.3s-1.6 7.1-1.7 12.6h14.3z" />
	<path fill="#005A9C" d="M480.6 61.1v2.7c-2.6.2-4.4.6-5.3 1.1-.9.5-1.4 1.6-1.4 3.3 0 .5.1 1 .2 1.6.1.6.3 1.2.5 1.9l12.4 37.4h.9L500 77.8c.1-.2-.4-1.8-1.5-4.8-1-3-1.8-4.8-2.2-5.5-.8-1.3-1.7-2.1-2.7-2.7-.9-.5-2.7-.9-5.2-1v-2.7h33.4v2.7c-3.1.2-5.1.6-6.2 1-1 .4-1.5 1.4-1.5 2.8 0 .3.1 1 .3 2 .2 1 .6 2.3 1.2 4.1l11.1 34.4h.7L539.3 73c.2-.6.4-1.3.5-2 .1-.7.2-1.5.2-2.4 0-2-.7-3.3-2.2-4-.9-.4-2.6-.7-5.2-.8v-2.7h19.6v2.7c-1.6.2-2.9.7-3.8 1.3-1.6 1.1-2.8 2.9-3.7 5.6l-21.4 64.5h-2.8l-18-50.2h-.7l-19.6 50.2h-3l-22.6-64.5c-1-2.8-2-4.6-2.9-5.4-1-.8-2.5-1.3-4.5-1.6v-2.6h31.4zM555.9 130.8c1.9-.2 3.4-.8 4.3-1.6.9-.8 1.4-2.5 1.4-4.9V69.9c0-2.1-.4-3.6-1.2-4.4-.8-.9-2.3-1.4-4.5-1.7v-2.6h20.7v30.1c2.2-2.6 4.5-4.7 6.9-6.1 2.4-1.5 5.2-2.2 8.2-2.2 4.1 0 7.5 1.2 10.2 3.6 2.7 2.4 4 6.4 4 12.2v25.7c0 2.4.4 4 1.2 4.8.8.7 2.2 1.3 4.1 1.7v2.6h-25.1V131c1.9-.4 3.2-.9 3.9-1.6.7-.7 1-2.2 1-4.5v-26c0-2.4-.2-4.3-.7-5.5-.8-2.2-2.5-3.3-5-3.3-1.8 0-3.8.9-5.7 2.6-2 1.7-2.9 2.9-2.9 3.5v28.6c0 2.3.3 3.8 1 4.5.7.7 2 1.2 3.9 1.6v2.6h-25.8v-2.7z" />
	<path fill-rule="evenodd" clip-rule="evenodd" fill="#005A9C" d="M622.5 61.9c1.6-1.6 3.6-2.5 5.9-2.5 2.3 0 4.2.8 5.8 2.5 1.6 1.6 2.5 3.6 2.5 5.9 0 2.3-.8 4.3-2.5 5.9-1.6 1.6-3.5 2.4-5.8 2.4s-4.3-.8-5.9-2.4c-1.6-1.6-2.4-3.6-2.4-5.9 0-2.3.8-4.3 2.4-5.9m-7.1 68.9c1.9-.3 3.2-.8 3.9-1.4 1-.9 1.6-2.6 1.6-5.1V92.9c0-2.2-.4-3.6-1.1-4.4-.7-.8-2.2-1.4-4.3-1.8v-2.6H636v40.6c0 2.3.3 3.8 1 4.5.7.7 2 1.2 3.9 1.6v2.6h-25.5v-2.6z" />
	<path fill="#005A9C" d="M645.1 88.8v-3c.9-.9 2.1-1.9 3.5-3.1 1.8-1.7 3.6-3.5 5.2-5.3 3.2-3.6 6.2-7.4 8.8-11.4h2.7v18.1h10.2v4.7h-10.2V121c0 1.5.2 2.8.7 3.8.7 1.6 1.8 2.3 3.4 2.3 1.4 0 2.6-.5 3.5-1.5.9-1 1.9-2.4 2.8-4.1l2.6 1.3c-1.3 2.9-2.8 5.3-4.5 7.2-3.1 3.2-6.8 4.9-11.2 4.9-2.5 0-4.7-.5-6.6-1.4-3.6-1.8-5.4-5.1-5.4-9.9V88.8h-5.5z" />
	<path fill-rule="evenodd" clip-rule="evenodd" fill="#005A9C" d="M688 89.7c4.4-4.6 9.7-6.8 15.8-6.8 3.5 0 6.8.9 9.9 2.8 3.1 1.8 5.5 4.4 7.2 7.7 1.3 2.5 2.1 5.7 2.6 9.6.2 1.8.4 3.3.4 4.2h-27.3c.2 4.3.9 8 2.1 11.1 2.1 5.9 5.8 8.8 11 8.8 2.5 0 4.9-.8 7.1-2.3 1.4-.9 3-2.5 5.1-4.8l2.5 1.5c-3.3 5.4-7.1 9.2-11.5 11.3-2.8 1.4-6.1 2-9.7 2-5.3 0-10.2-2.1-14.8-6.2-4.6-4.1-6.9-10.8-6.9-19.9-.1-8.1 2.1-14.5 6.5-19m22.7 13.5c-.1-6.3-.6-10.7-1.5-13.2s-2.7-3.8-5.4-3.8c-2.8 0-4.7 1.4-5.7 4.3s-1.6 7.1-1.7 12.6h14.3zM755 130.7c3.6-.2 6.1-.9 7.4-2 1.3-1.2 2-3.8 2-7.7V73.6c0-4.1-.8-6.8-2.4-8.1-1-.8-3.4-1.4-7.1-1.7v-2.7h34.4c7.1 0 12.9.7 17.3 2.2 8.6 3 12.9 8.5 12.9 16.4 0 5.8-2.1 10.4-6.4 13.7-3.3 2.5-6.7 4.1-10.4 4.8l21.5 30.5c.6.8 1.2 1.4 1.9 1.7.7.2 1.5.4 2.5.5v2.6h-21.9L784.6 100h-2.8v20.9c0 3.8.6 6.3 1.9 7.6 1.3 1.3 3.8 2 7.5 2.1v2.7H755v-2.6zm41.7-37.1c3-1.9 4.5-6.2 4.5-13 0-4.1-.6-7.4-1.7-9.8-2-4.1-5.6-6.1-10.9-6.1-2.9 0-4.7.4-5.6 1.1-.9.7-1.3 1.9-1.3 3.5v27.2c7.1-.1 12.1-1.1 15-2.9M839.4 61.9c1.6-1.6 3.6-2.5 5.9-2.5 2.3 0 4.2.8 5.8 2.5 1.6 1.6 2.5 3.6 2.5 5.9 0 2.3-.8 4.3-2.5 5.9-1.6 1.6-3.5 2.4-5.8 2.4s-4.3-.8-5.9-2.4c-1.6-1.6-2.4-3.6-2.4-5.9 0-2.3.8-4.3 2.4-5.9m-7.1 68.9c1.9-.3 3.2-.8 3.9-1.4 1-.9 1.6-2.6 1.6-5.1V92.9c0-2.2-.4-3.6-1.1-4.4-.7-.8-2.2-1.4-4.3-1.8v-2.6h20.5v40.6c0 2.3.3 3.8 1 4.5.7.7 2 1.2 3.9 1.6v2.6h-25.5v-2.6z" />
	<path fill="#005A9C" d="M888.8 84.1v2.6c-1.9.1-3.3.3-4.3.6-.9.4-1.4 1.1-1.4 2.2 0 .3.1.8.4 1.6.3.7.5 1.3.6 1.6l8 20.5h.8l7.2-18.3c.3-.9.6-1.8.8-2.7.2-.9.4-1.6.4-2.1 0-1.5-.5-2.4-1.5-2.8-1-.4-2.5-.6-4.4-.7V84h16.2v2.6c-1.4.1-2.6.6-3.5 1.4-.9.8-1.8 2.3-2.7 4.4l-17.2 42.4h-2.7l-12.9-31.7c-.9-2.2-1.8-4.3-2.7-6.3-.8-1.9-1.7-3.8-2.7-5.7-1-1.9-1.7-3.1-2.3-3.6-.6-.5-1.6-.8-3-.9V84h26.9z" />
	<path fill-rule="evenodd" clip-rule="evenodd" fill="#005A9C" d="M922.7 89.7c4.4-4.6 9.7-6.8 15.8-6.8 3.5 0 6.8.9 9.9 2.8 3.1 1.8 5.5 4.4 7.2 7.7 1.3 2.5 2.1 5.7 2.6 9.6.2 1.8.4 3.3.4 4.2h-27.3c.2 4.3.9 8 2.1 11.1 2.1 5.9 5.8 8.8 11 8.8 2.5 0 4.9-.8 7.1-2.3 1.4-.9 3-2.5 5.1-4.8l2.5 1.5c-3.3 5.4-7.1 9.2-11.5 11.3-2.8 1.4-6.1 2-9.7 2-5.3 0-10.2-2.1-14.8-6.2-4.6-4.1-6.9-10.8-6.9-19.9 0-8.1 2.2-14.5 6.5-19m22.7 13.5c-.1-6.3-.6-10.7-1.5-13.2s-2.7-3.8-5.4-3.8c-2.8 0-4.7 1.4-5.7 4.3s-1.6 7.1-1.7 12.6h14.3z" />
	<path fill="#005A9C" d="M963.2 130.8c2.1-.2 3.5-.7 4.3-1.5.8-.7 1.2-2.1 1.3-4.2l.1-3.1V92.9c0-2.2-.4-3.7-1.1-4.5-.8-.8-2.3-1.3-4.5-1.6v-2.6h20.3v8.4c2.3-3 4.5-5.3 6.7-7.1 2.2-1.7 4.8-2.6 7.7-2.6 2.2 0 4.2.7 5.9 2.1 1.8 1.4 2.7 3.4 2.7 6.2 0 2.1-.6 3.8-1.9 5.2-1.2 1.4-2.8 2-4.8 2-2.3 0-4.2-1.1-5.9-3.2-1.6-2.1-2.8-3.2-3.4-3.2-1.4 0-2.9.9-4.3 2.7-1.4 1.7-2.1 4.2-2.1 7.5v20.2c0 3.6.5 5.8 1.5 6.7 1 .9 3.1 1.4 6.2 1.7v2.6h-28.5v-2.6zM1069.3 61.1v2.7c-3.8.2-6.3.5-7.5 1-1.1.4-1.7 1.5-1.7 3.2 0 .6 0 1.1.1 1.6s.3 1 .5 1.5l16.2 39.5h.6l14-36.2c.3-.8.6-1.6.8-2.5.4-1.4.6-2.5.6-3.3 0-2-.6-3.3-1.8-3.8-1.2-.5-3.6-.9-7.3-1.1V61h22.8v2.6c-2.6.3-4.6 1-5.9 2.3-1.3 1.2-2.5 3.4-3.8 6.5l-24.4 62.9h-2.8l-27.5-64.1c-1.1-2.6-2.3-4.4-3.4-5.5-1.2-1.1-3-1.8-5.4-2v-2.6h35.9z" />
	<path fill-rule="evenodd" clip-rule="evenodd" fill="#005A9C" d="M1127.4 125.7c.8-.6 1.8-1.6 3-2.9v-15.6c-2.9.7-5.4 1.8-7.5 3.3-3.7 2.5-5.5 5.8-5.5 9.7 0 2.3.5 4.1 1.6 5.3 1.1 1.2 2.3 1.8 3.6 1.8 1.7 0 3.3-.5 4.8-1.6m-18.6-13.7c4.6-2.8 11.9-5.7 21.8-8.5v-7.8c0-3.2-.7-5.5-2-7s-3.7-2.3-7.1-2.3c-1.9 0-3.5.4-4.8 1.1-1.2.7-1.8 1.6-1.8 2.7 0 .4.1.8.2 1 .1.3.3.6.6.9l.6.7c.5.6.9 1.3 1.1 2 .3.7.5 1.4.5 2.2 0 2-.7 3.6-2 4.7s-2.9 1.6-4.7 1.6c-2.1 0-3.8-.6-5.3-1.8-1.4-1.2-2.1-3-2.1-5.3 0-4.1 1.9-7.4 5.8-9.8 3.9-2.4 8.6-3.6 14.3-3.6 6.1 0 11.1 1.2 15.2 3.5 4 2.4 6.1 6.7 6.1 13.1v25.9c0 .8.2 1.4.6 2 .4.5.9.8 1.4.8.4 0 .8-.1 1.1-.2.3-.2.9-.6 1.6-1.3l1.6 2.2c-2.1 2.4-4.4 4.1-6.9 5.1-1.6.6-3.3.9-5.1.9-3.2 0-5.5-.9-6.9-2.8-.8-1-1.4-2.6-1.8-4.7-3 3-6.3 5.1-10 6.3-2.3.8-4.5 1.1-6.7 1.2-2.9 0-5.7-.9-8.2-2.8-2.5-1.9-3.8-4.8-3.8-8.7-.3-4.7 2-8.5 6.7-11.3" />
	<path fill="#005A9C" d="M1154.3 130.8c1.9-.5 3.2-1 4-1.8.8-.8 1.2-2.3 1.2-4.7V69.9c0-2.3-.4-3.7-1.1-4.4-.7-.7-2.1-1.3-4.1-1.7v-2.6h20.3v63.3c0 2.4.4 3.9 1.1 4.6.8.7 2.1 1.3 4.1 1.8v2.6h-25.5v-2.7zM1184 130.8c1.9-.5 3.2-1 4-1.8.8-.8 1.2-2.3 1.2-4.7V69.9c0-2.3-.4-3.7-1.1-4.4-.7-.7-2.1-1.3-4.1-1.7v-2.6h20.3v63.3c0 2.4.4 3.9 1.1 4.6.8.7 2.1 1.3 4.1 1.8v2.6H1184v-2.7z" />
	<path fill-rule="evenodd" clip-rule="evenodd" fill="#005A9C" d="M1221 89.7c4.4-4.6 9.7-6.8 15.8-6.8 3.5 0 6.8.9 9.9 2.8 3.1 1.8 5.5 4.4 7.2 7.7 1.3 2.5 2.1 5.7 2.6 9.6.2 1.8.4 3.3.4 4.2h-27.3c.2 4.3.9 8 2.1 11.1 2.1 5.9 5.8 8.8 11 8.8 2.5 0 4.9-.8 7.1-2.3 1.4-.9 3-2.5 5.1-4.8l2.5 1.5c-3.3 5.4-7.1 9.2-11.5 11.3-2.8 1.4-6.1 2-9.7 2-5.3 0-10.2-2.1-14.8-6.2-4.6-4.1-6.9-10.8-6.9-19.9-.1-8.1 2.1-14.5 6.5-19m22.7 13.5c-.1-6.3-.6-10.7-1.5-13.2s-2.7-3.8-5.4-3.8c-2.8 0-4.7 1.4-5.7 4.3s-1.6 7.1-1.7 12.6h14.3z" />
	<path fill="#005A9C" d="M1263.3 141.8c1.4-1.1 3.1-1.7 5.1-1.7 1.7 0 3.1.5 4.2 1.5s1.7 2.2 1.7 3.6l-.3 2.4c0 .5.2.9.5 1.3s.8.6 1.3.6c1.7 0 3.4-1.4 4.9-4.2.9-1.7 2.3-5.2 4.1-10.2l-12.9-31.7c-.9-2.2-1.8-4.3-2.7-6.3-.8-1.9-1.7-3.8-2.7-5.7-1-1.9-1.7-3.1-2.3-3.6-.6-.5-1.6-.8-3-.9v-2.6h26.7v2.6c-1.7 0-3 .2-4.1.6-1 .3-1.6 1.1-1.6 2.2 0 .2.1.6.2 1s.4 1.2.8 2.2l8.4 21.5h.8l6.8-19.3c.3-1 .6-1.9.8-2.7.2-.8.4-1.5.4-2.1 0-1.5-.5-2.4-1.5-2.8-1-.4-2.4-.6-4.4-.7v-2.6h16.2v2.6c-1.4.1-2.5.5-3.4 1.2-.9.6-1.8 2.2-2.7 4.6l-16 42.6c-2.9 7.9-5.4 13.2-7.6 16-2.1 2.8-5.4 4.2-9.9 4.2-3.3 0-5.8-.9-7.5-2.6-1.7-1.7-2.6-3.6-2.6-5.6.3-2.5 1-4.2 2.3-5.4M1372.1 279.9c.1 4.5-3.1 6.9-5.5 10.5 2.8 2.3 6.3-.2 9.8.6 4.3 3 10 3.8 12.6 8.7 6.7-2.3 10.5 4.1 16.2 5.3l-3.5 3.5c-7-1.3-13.6-4.5-21-3.8-2.7 1.4-2.8 4.5-4.5 6.7 3.7 9.9-3.3 15.5 1.3 25.1-.1 2.8-.9 6.1-3.1 8.5.4 4.2 1 9.8-2.2 13.7-.4.3-.7.9-1.3.6-2.5-10.4-2.7-21.2-3.9-32.6-.5-.6-1.2-.3-1.8-.7-1.3 5.7-3.3 11.4-1 16.9.5 5.3-1.5 10.7-5.5 13.3-2.8-10.1-.3-21-3.5-30.8 1.3-6.4 3.6-14.9-.7-21 .4-1.6-.6-2.6-1.7-3.2-3.1-.3-4.8 3.2-7.8 3.2-4.7-1.5-8.6.6-12 3.5-1.5-1.6-3.4-2.2-5.3-2.9 7.3-5.8 15.6-8.9 23.5-12.8 4.4-.5 8.8-2.1 13-1.5 1.2-.6.3-1 0-1.7-.6-1.3-1.9-.5-2.7-.7 1.4-4.4-3.5-9.6 2.7-11.2 3.1-.7 8.5-3.2 7.9 2.8" />
	<path fill="#D73647" d="M1326.3 307.2c-9.4 2.5-9.1 13.3-17.5 17.1-.5 7 6.7 9.5 11.5 11.7l16.1 9.8c4.5 6 10.5 11.2 12.3 18.3-1.2 1.5-3.1 1.5-4.8 1.3-3.9-5-8.3-7.4-14.5-8.8.1-1.2.1-3.2-1.3-4.2-2.5-2.2-5.8-2.2-8.8-3.1 2.1 9.5 13.6 17.1 20.3 23.8-.6 4.1-3.6 2.1-6.2 2.1-7.8-1.3-12.7-9.4-20.3-10.8-2.2-4.2-6.6-7.7-7.4-12.3-2.5-4.4-8.8-1.5-11.6-5.3-4.5 3.4-2.3 10.5-7.3 13.7-3.4 4.1-.6 13.6-7.7 13.3-1.2-7.4 2-14 1.3-21.7 3.5-2.8 3.5-7.9 2.9-11.6 2.8-2.9 5.7-6.6 5.8-10.9-3.4-2.5-12.1 1.3-12.3-5.9-.1-2.5 1.9-3.9 2.9-6 1.7-1.5 5.1-.1 6.6-.7 1 3.1 5.1 3.6 4.5 7.8.3 1.2-.4 1.7-.6 2.8 8.2-1 10.6-13.1 19.3-15 4.8-4.5 9.3-9.8 16.3-9.2l.5 3.8z" />
	<path fill="#F8991D" d="M1416.4 311c7.6 7.5 18.8 8 24.8 18 1.6-.5 1.9-2.6 2.8-3.9l4.5-3.5c2 1.9 7.6 1.4 6 5.7-2.2.4-.7 2.3-1 3.5v1c-3.8-1.2-6.4 2.1-9.8 1-1.7 3.4 3.1 4.8 3.5 7.7-1 11.7 5.8 20.1 4.8 31.8-.3 1-1.7 1-2 0-2.8-3.8-4.8-8.3-5-13-6.1-2.3-5.4-8.9-8.3-13.3-11.8 2.2-13.2 17.4-24.5 19.7-6.8 0-10.2 8.3-17.9 6.3l-1.7 1.3c-.5-1.4-.7-3.2.4-4.8 4.4-4.5 9.5-8.8 15.8-9.5 2.6-3.5 6.6-4.6 7.7-8.7l-.7-.7c-9.6 4.8-20.6 7.4-29.5 12.7h-2.5c.9-5.7 6.4-11.3 12.3-12.3 1.5-3.5 5.1-1.7 7.4-3.2 4.8-8.9 16.9-6.4 19.6-17.2-1.7-6.1-9.5-7.9-10.5-14.3l-8.8-6.7c1-2 3.9-2.5 6-1.7 1.5 2.2 3.7 4.2 6.6 4.1" />
	<path fill="#008457" d="M1406.2 386.3c8 1.6 15.9 3.6 23.5 6.7v2.1c-4.2 1.3-7.8-1.2-11.5-1.8-27.9-5.2-58.4-6.8-85.8 0-8.4-1.6-15 3.7-22.2 6.3-1.2.3-2.3-.1-2.8-1.3.6-1.8-.7-2.7-2.1-2.5h-3.2c5-8.2 16.1-4.1 22.5-10.2 1.7 2.3 3-1.2 4.8-1 22.9-3 41-5 63.5.5l13.3 1.2z" />
	<path d="M981.5 316.8c2.4.7 3.8 1.1 4 1.1.6 0 1.2-.2 1.7-.5s.9-.9 1.1-1.6h1.3l.6 14.9h-1.5c-.8-3-1.9-5.4-3.3-7.2-2.6-3.4-6.1-5.1-10.5-5.1s-8.1 1.8-10.9 5.5c-2.8 3.7-4.2 8.7-4.2 15.2 0 5.9 1.5 10.7 4.4 14.2 3 3.5 6.7 5.3 11.2 5.3 3.3 0 6.3-.8 9-2.5 1.6-.9 3.3-2.3 5.2-4.2l1.2 1.2c-1.4 1.9-3.1 3.5-5.2 4.9-3.5 2.4-7.4 3.6-11.5 3.6-6.8 0-12.2-2.3-16.2-6.8-3.7-4.2-5.5-9.5-5.5-15.8 0-6.5 1.9-11.9 5.8-16.3 4.1-4.6 9.4-6.9 16-6.9 2.5-.1 4.9.3 7.3 1" />
	<path fill-rule="evenodd" clip-rule="evenodd" d="M998.7 334.5c2.6-3 6-4.5 10.1-4.5s7.5 1.4 10.1 4.2c2.7 2.8 4 6.6 4 11.2 0 4.3-1.3 8-3.9 11.2-2.6 3.2-6 4.8-10.1 4.8-4 0-7.3-1.5-10-4.6-2.7-3.1-4.1-6.9-4.1-11.5 0-4.2 1.3-7.8 3.9-10.8m5-.8c-2.1 2-3.1 5.4-3.1 10.2 0 3.9.8 7.4 2.5 10.8 1.7 3.3 4 5 6.9 5 2.3 0 4.1-1.1 5.3-3.3 1.3-2.2 1.9-5.1 1.9-8.8 0-3.7-.8-7.3-2.4-10.6-1.6-3.3-3.9-5-6.9-5-1.6 0-3 .5-4.2 1.7M1030.3 334.5c2.6-3 6-4.5 10.1-4.5s7.5 1.4 10.1 4.2c2.7 2.8 4 6.6 4 11.2 0 4.3-1.3 8-3.9 11.2-2.6 3.2-6 4.8-10.1 4.8-4 0-7.3-1.5-10-4.6-2.7-3.1-4.1-6.9-4.1-11.5 0-4.2 1.3-7.8 3.9-10.8m5-.8c-2.1 2-3.1 5.4-3.1 10.2 0 3.9.8 7.4 2.5 10.8 1.7 3.3 4 5 6.9 5 2.3 0 4.1-1.1 5.3-3.3 1.3-2.2 1.9-5.1 1.9-8.8 0-3.7-.8-7.3-2.4-10.6-1.6-3.3-3.9-5-6.9-5-1.6 0-3 .5-4.2 1.7M1068.9 357.8c1.1.7 2.3 1.1 3.8 1.1 2.2 0 4.1-1.2 5.7-3.5 1.6-2.3 2.4-5.6 2.4-9.7 0-4-.8-7-2.5-8.9-1.6-2-3.5-3-5.7-3-1.5 0-2.9.5-4.2 1.5-1.3 1-1.9 1.9-1.9 2.9v16.3c.6 1.5 1.4 2.6 2.4 3.3m-12.2 16.1c1.9-.1 3.2-.6 3.7-1.3.5-.7.8-1.9.8-3.5V338c0-1.6-.2-2.7-.6-3.1-.4-.5-1.1-.7-2.1-.7h-.6c-.2 0-.5.1-.8.1v-1.1l2.9-1c.1 0 2.2-.8 6.2-2.2.1 0 .2.1.2.2.1.1.1.2.1.3v4.4c1.4-1.4 2.6-2.5 3.6-3.2 1.9-1.2 3.8-1.8 5.7-1.8 2.8 0 5.3 1.3 7.3 3.8 2.1 2.5 3.1 6 3.1 10.4 0 4.3-1.2 8.3-3.7 11.8s-5.5 5.3-9.3 5.3c-1.2 0-2.2-.2-3-.5-1.3-.5-2.5-1.3-3.6-2.5v10.6c0 2.2.3 3.5 1 4s2.2.8 4.4 1v1.1h-15.3v-1zM1110.2 333.2c2.2 2.1 3.3 5.1 3.3 9h-19.6c.2 5 1.3 8.7 3.2 11 2 2.3 4.3 3.4 6.9 3.4 2.2 0 4-.6 5.5-1.8 1.5-1.2 2.9-2.9 4.1-5.1l1.1.4c-.8 2.7-2.4 5.3-4.8 7.6-2.3 2.3-5.1 3.5-8.5 3.5-3.9 0-6.9-1.5-9-4.6-2.1-3.1-3.1-6.6-3.1-10.6 0-4.3 1.2-8.1 3.7-11.3 2.4-3.2 5.6-4.7 9.6-4.7 2.9 0 5.4 1.1 7.6 3.2m-14.8 2.5c-.7 1.2-1.1 2.6-1.4 4.4h13c-.2-2.2-.6-3.8-1.2-4.8-1-1.9-2.7-2.9-5.1-2.9-2.3 0-4.1 1.1-5.3 3.3" />
	<path d="M1116.4 359.4c1.9-.2 3.1-.5 3.8-1 .6-.5.9-1.7.9-3.4v-14.6c0-2.1-.2-3.7-.6-4.6-.4-.9-1.1-1.4-2.1-1.4-.2 0-.5 0-.8.1-.3 0-.7.1-1.1.2v-1.1c1.2-.4 2.4-.9 3.6-1.3 1.2-.5 2.1-.8 2.6-1 1-.4 2.1-.9 3.2-1.4.1 0 .2.1.2.2s.1.3.1.7v5.3c1.3-1.9 2.6-3.4 3.8-4.5 1.2-1.1 2.5-1.6 3.8-1.6 1.1 0 1.9.3 2.6 1 .7.6 1 1.5 1 2.5 0 .9-.3 1.6-.8 2.2-.5.6-1.1.9-1.9.9-.8 0-1.6-.4-2.4-1.1-.8-.8-1.4-1.1-1.9-1.1-.7 0-1.6.6-2.7 1.9-1.1 1.2-1.6 2.5-1.6 3.8v14.6c0 1.9.4 3.2 1.2 3.9.8.7 2.2 1 4.1 1v1.1h-15.2v-1.3z" />
	<path fill-rule="evenodd" clip-rule="evenodd" d="M1155.4 342.5c-2.4.8-4.3 1.7-5.9 2.7-3 1.9-4.4 4.1-4.4 6.6 0 2 .6 3.4 1.9 4.3.8.6 1.7.9 2.7.9 1.4 0 2.7-.4 3.9-1.2 1.3-.8 1.9-1.8 1.9-3v-10.3zm-11.4 3.7c1.9-1.3 5.7-3.1 11.3-5.3v-2.8c0-2.2-.2-3.7-.6-4.6-.7-1.5-2.1-2.2-4.4-2.2-1 0-2 .3-3 .8-.9.6-1.4 1.4-1.4 2.4 0 .3.1.7.2 1.3.1.6.2 1 .2 1.2 0 1.2-.4 2.1-1.1 2.5-.4.3-.9.4-1.5.4-.9 0-1.6-.3-2.1-.9-.5-.7-.7-1.4-.7-2.1 0-1.5.9-3.1 2.7-4.7 1.8-1.7 4.4-2.5 7.8-2.5 4 0 6.7 1.4 8.1 4.1.8 1.5 1.1 3.7 1.1 6.5v13c0 1.3.1 2.1.2 2.6.3.8.8 1.3 1.7 1.3.5 0 .9-.1 1.2-.2.3-.2.8-.5 1.6-1.1v1.7c-.7.8-1.4 1.5-2.1 2.1-1.2.8-2.3 1.2-3.5 1.2-1.4 0-2.4-.5-3.1-1.4-.6-1-1-2.1-1-3.4-1.6 1.4-2.9 2.5-4 3.2-1.9 1.2-3.7 1.8-5.3 1.8-1.8 0-3.3-.6-4.6-1.9-1.3-1.3-1.9-3-1.9-5-.3-3.3 1.2-5.9 4.2-8" />
	<path d="M1181.4 330.6v2.3h-6.3l-.1 18.7c0 1.6.1 2.9.4 3.7.5 1.5 1.5 2.2 2.9 2.2.7 0 1.4-.2 1.9-.5.6-.4 1.2-1 1.9-1.8l.8.7-.7 1c-1.1 1.5-2.2 2.6-3.4 3.2-1.2.6-2.3.9-3.5.9-2.4 0-4.1-1.1-4.9-3.4-.5-1.2-.7-2.9-.7-5.1v-19.7h-3.4c-.1-.1-.2-.1-.2-.2s-.1-.2-.1-.3c0-.2 0-.4.1-.5.1-.1.4-.4.9-.8 1.4-1.2 2.4-2.2 3.1-3 .6-.8 2.1-2.8 4.4-6.1.3 0 .4 0 .5.1.1 0 .1.2.1.5v8h6.3z" />
	<path fill-rule="evenodd" clip-rule="evenodd" d="M1189 316.2c.6-.7 1.4-1 2.3-1 .9 0 1.6.3 2.3 1 .6.6 1 1.5 1 2.4 0 .9-.3 1.7-1 2.4-.6.6-1.4 1-2.3 1-.9 0-1.7-.3-2.3-1-.6-.7-.9-1.5-.9-2.4 0-1 .3-1.8.9-2.4m-4.9 43.4c2.2-.2 3.6-.6 4.2-1.2.6-.6.9-2.1.9-4.7v-15.5c0-1.4-.1-2.4-.3-2.9-.3-.9-1-1.3-1.9-1.3-.2 0-.5 0-.7.1-.2 0-.8.2-1.9.5v-1l1.3-.5c3.6-1.2 6.1-2.2 7.5-2.8.6-.3.9-.4 1.1-.4 0 .2.1.3.1.5v23.3c0 2.5.3 4 .8 4.6.6.6 1.9 1 3.9 1.2v.9h-15v-.8z" />
	<path d="M1214 330.3v1c-1.1.1-1.8.3-2.3.5-.4.2-.7.7-.7 1.4 0 .3 0 .7.1 1 .1.3.3.8.5 1.4l6.4 16.8 5.6-14.9c.3-.7.5-1.5.7-2.2.2-.8.4-1.4.4-1.8 0-.8-.4-1.5-1.1-1.8-.5-.2-1.1-.3-1.9-.4v-1h8.8v1c-1 .1-1.7.4-2.2 1.1-.4.6-1.1 2-1.9 4.3l-8.9 23.4c-.2.4-.3.7-.4.8-.1.1-.2.2-.4.2s-.4-.1-.5-.4c-.1-.2-.3-.5-.5-.9l-9.4-23.8c-.8-1.9-1.6-3.2-2.4-3.9-.5-.4-1.3-.6-2.3-.8v-1h12.4z" />
	<path fill-rule="evenodd" clip-rule="evenodd" d="M1254.2 333.2c2.2 2.1 3.3 5.1 3.3 9h-19.6c.2 5 1.3 8.7 3.2 11 2 2.3 4.3 3.4 6.9 3.4 2.2 0 4-.6 5.5-1.8 1.5-1.2 2.9-2.9 4.1-5.1l1.1.4c-.8 2.7-2.4 5.3-4.8 7.6-2.3 2.3-5.1 3.5-8.5 3.5-3.9 0-6.9-1.5-9-4.6-2.1-3.1-3.1-6.6-3.1-10.6 0-4.3 1.2-8.1 3.7-11.3 2.4-3.2 5.6-4.7 9.6-4.7 2.9 0 5.4 1.1 7.6 3.2m-14.8 2.5c-.7 1.2-1.1 2.6-1.4 4.4h13c-.2-2.2-.6-3.8-1.2-4.8-1-1.9-2.7-2.9-5.1-2.9-2.3 0-4.1 1.1-5.3 3.3M405.4 345.3l-7.3-18.3-7.2 18.3h14.5zm-27.3 17.1v-1.2c1.6-.2 2.8-.8 3.6-1.9.8-1.1 2.2-4.1 4.2-9l13.2-32.6h1.2l15.7 37.7c1.1 2.5 1.9 4.1 2.5 4.7.6.6 1.7 1 3.2 1.2v1.2h-16.1v-1.2c1.9-.2 3-.4 3.6-.6.5-.3.8-.9.8-1.9 0-.3-.1-.9-.3-1.7-.2-.8-.5-1.7-.9-2.6l-2.6-6.4h-16.6c-1.6 4.4-2.6 7-3 8-.3 1-.5 1.7-.5 2.3 0 1.1.4 1.9 1.3 2.3.5.3 1.5.5 3 .6v1.2h-12.3z" />
	<path d="M435.3 318.4H471l.3 11.3h-1.5c-.7-3.5-1.7-5.9-2.8-6.9-1.1-1.1-3.5-1.6-7.2-1.6h-3.5v34c0 2.6.4 4.2 1.1 4.8.8.6 2.4 1 5 1.2v1.2H444v-1.2c2.7-.2 4.3-.7 5-1.4.7-.7 1-2.5 1-5.4v-33.2h-3.5c-3.5 0-5.9.5-7.2 1.6-1.3 1.1-2.2 3.4-2.8 6.9H435l.3-11.3z" />
	<path fill-rule="evenodd" clip-rule="evenodd" d="M473.8 336.4c2.6-3 6-4.5 10.1-4.5s7.5 1.4 10.1 4.2c2.7 2.8 4 6.6 4 11.2 0 4.3-1.3 8-3.9 11.2-2.6 3.2-6 4.8-10.1 4.8-4 0-7.3-1.5-10-4.6-2.7-3.1-4.1-6.9-4.1-11.5 0-4.2 1.3-7.8 3.9-10.8m4.9-.8c-2.1 2-3.1 5.4-3.1 10.2 0 3.9.8 7.4 2.5 10.8 1.7 3.3 4 5 6.9 5 2.3 0 4.1-1.1 5.3-3.3 1.3-2.2 1.9-5.1 1.9-8.8 0-3.7-.8-7.3-2.4-10.6-1.6-3.3-3.9-5-6.9-5-1.6 0-3 .6-4.2 1.7" />
	<path d="M509.7 332.3v20.8c0 1.5.2 2.7.6 3.5.8 1.6 2.2 2.5 4.2 2.5 1.4 0 2.8-.5 4.1-1.5.8-.5 1.5-1.3 2.3-2.2v-17.8c0-1.7-.3-2.8-.9-3.3-.6-.5-1.9-.8-3.7-.9v-1.1h10v22.8c0 1.5.2 2.5.7 3 .5.5 1.6.8 3.2.7v.9c-1.1.3-2 .6-2.5.7-.5.2-1.4.4-2.7.9-.5.2-1.7.7-3.5 1.4-.1 0-.2-.1-.2-.2V357c-1.4 1.8-2.7 3.1-3.8 3.9-1.7 1.3-3.6 1.9-5.6 1.9-1.8 0-3.5-.7-5.1-2-1.6-1.3-2.4-3.5-2.4-6.7v-16.8c0-1.7-.4-2.9-1-3.5-.5-.4-1.4-.6-2.9-.8v-.9h9.2zM553.9 333.9c1.9 1.4 2.8 2.9 2.8 4.6 0 .7-.2 1.4-.7 2-.5.6-1.2.9-2.2.9-.7 0-1.4-.3-1.9-.8s-.9-1.3-1.2-2.3l-.4-1.6c-.3-1.1-.7-2-1.4-2.4-.7-.5-1.6-.7-2.7-.7-2.3 0-4.3 1.1-6 3.2-1.6 2.1-2.4 5-2.4 8.6 0 3.3.9 6.2 2.7 8.8 1.8 2.6 4.2 3.9 7.2 3.9 2.1 0 4-.7 5.7-2.2.9-.8 2-2.2 3.2-4l.9.6c-1.2 2.6-2.4 4.7-3.7 6.2-2.5 2.9-5.4 4.3-8.6 4.3-3.2 0-6.1-1.3-8.5-4-2.5-2.7-3.7-6.3-3.7-10.8 0-4.5 1.3-8.3 4-11.6 2.7-3.2 6.1-4.8 10.2-4.8 2.6 0 4.8.7 6.7 2.1M560.1 361.5c1.7-.2 2.8-.7 3.3-1.3.5-.6.8-2.2.8-4.5v-31.1c0-1.2-.2-2.1-.5-2.7-.3-.6-1-.9-2.2-.9-.2 0-.5 0-.7.1-.2 0-.4.1-.7.1V320c.9-.3 2-.6 3.3-1 1.3-.4 2.3-.7 2.8-.9l3-1 .1.2v19.9c1.3-1.6 2.4-2.7 3.5-3.4 1.8-1.3 3.8-1.9 5.9-1.9 3.3 0 5.6 1.5 6.8 4.4.7 1.6 1 3.6 1 6.1v13.2c0 2.3.2 3.8.7 4.5.5.7 1.6 1.1 3.1 1.4v.9H577v-.9c1.8-.3 2.9-.7 3.5-1.3.5-.6.8-2.1.8-4.5v-13.1c0-2.1-.3-3.8-1-5.1-.7-1.3-1.9-1.9-3.8-1.9-1.6 0-3.2.6-4.7 1.8-1.5 1.2-2.3 2-2.3 2.4v16c0 2.4.3 3.9.8 4.5.5.6 1.7 1 3.4 1.3v.9h-13.6v-1zM594.5 352.2h1c.5 2.5 1.1 4.4 1.9 5.7 1.4 2.4 3.6 3.6 6.3 3.6 1.5 0 2.8-.4 3.6-1.3.9-.9 1.4-2.1 1.4-3.5 0-.9-.3-1.8-.8-2.6s-1.4-1.7-2.7-2.5l-3.5-2.1c-2.5-1.4-4.4-2.9-5.6-4.3-1.2-1.4-1.8-3.2-1.8-5.1 0-2.4.8-4.4 2.5-6 1.6-1.6 3.7-2.3 6.2-2.3 1.1 0 2.3.2 3.6.7 1.3.4 2.1.6 2.2.6.4 0 .6-.1.8-.2.2-.1.3-.3.4-.5h.7l.2 9.1h-1c-.4-2.1-1-3.7-1.7-4.9-1.3-2.2-3.1-3.2-5.5-3.2-1.4 0-2.6.5-3.4 1.4-.8.9-1.2 2-1.2 3.3 0 2 1.4 3.8 4.3 5.3l4.1 2.3c4.4 2.5 6.6 5.4 6.6 8.8 0 2.6-.9 4.6-2.7 6.3-1.8 1.6-4.2 2.4-7.1 2.4-1.2 0-2.6-.2-4.2-.6-1.6-.4-2.5-.6-2.8-.6-.2 0-.5.1-.6.3-.2.2-.3.4-.4.6h-.8v-10.7zM631.9 332.5v2.3h-6.3l-.1 18.7c0 1.6.1 2.9.4 3.7.5 1.5 1.5 2.2 2.9 2.2.7 0 1.4-.2 1.9-.6.6-.4 1.2-1 1.9-1.8l.8.7-.7 1c-1.1 1.5-2.2 2.6-3.4 3.2-1.2.6-2.3.9-3.5.9-2.4 0-4.1-1.1-4.9-3.4-.5-1.2-.7-2.9-.7-5.1v-19.7h-3.4c-.1-.1-.2-.1-.2-.2s-.1-.2-.1-.3c0-.2 0-.4.1-.5.1-.1.4-.4.9-.8 1.4-1.2 2.4-2.2 3.1-3 .6-.8 2.1-2.8 4.4-6.1.3 0 .4 0 .5.1.1 0 .1.2.1.5v8h6.3z" />
	<path fill-rule="evenodd" clip-rule="evenodd" d="M638.9 336.4c2.6-3 6-4.5 10.1-4.5s7.5 1.4 10.1 4.2c2.7 2.8 4 6.6 4 11.2 0 4.3-1.3 8-3.9 11.2-2.6 3.2-6 4.8-10.1 4.8-4 0-7.3-1.5-10-4.6-2.7-3.1-4.1-6.9-4.1-11.5 0-4.2 1.3-7.8 3.9-10.8m5-.8c-2.1 2-3.1 5.4-3.1 10.2 0 3.9.8 7.4 2.5 10.8 1.7 3.3 4 5 6.9 5 2.3 0 4.1-1.1 5.3-3.3 1.3-2.2 1.9-5.1 1.9-8.8 0-3.7-.8-7.3-2.4-10.6-1.6-3.3-3.9-5-6.9-5-1.6 0-3 .6-4.2 1.7" />
	<path d="M666.2 361.5c1.5-.2 2.5-.6 3.1-1.1.6-.6.9-1.9.9-3.9V340c0-1.4-.1-2.4-.4-2.9-.4-.8-1.2-1.2-2.4-1.2h-.6c-.2 0-.4.1-.7.1v-1.1c.8-.3 2.8-.9 6-2l2.9-1c.1 0 .2.1.2.2s.1.3.1.5v4.8c1.9-1.9 3.4-3.1 4.4-3.8 1.6-1.1 3.3-1.6 5-1.6 1.4 0 2.7.4 3.8 1.3 2.2 1.6 3.3 4.6 3.3 8.8V357c0 1.6.3 2.7.9 3.4.6.7 1.6 1 3 1.1v.9h-13.2v-.9c1.5-.2 2.6-.6 3.2-1.3.6-.7.9-2.1.9-4.3V342c0-1.9-.3-3.4-1-4.6-.7-1.2-1.9-1.9-3.6-1.9-1.2 0-2.5.4-3.7 1.3-.7.5-1.6 1.3-2.7 2.5v18.2c0 1.6.3 2.6 1 3.1s1.7.8 3.1.8v.9h-13.5v-.8z" />
	<path fill-rule="evenodd" clip-rule="evenodd" d="M718.8 335.1c2.2 2.1 3.3 5.1 3.3 9h-19.6c.2 5 1.3 8.7 3.2 11 2 2.3 4.3 3.4 6.9 3.4 2.2 0 4-.6 5.5-1.8 1.5-1.2 2.9-2.9 4.1-5.1l1.1.4c-.8 2.7-2.4 5.3-4.8 7.6-2.3 2.3-5.1 3.5-8.5 3.5-3.9 0-6.9-1.5-9-4.6-2.1-3.1-3.1-6.6-3.1-10.6 0-4.3 1.2-8.1 3.7-11.3 2.4-3.2 5.6-4.7 9.6-4.7 2.8.1 5.4 1.1 7.6 3.2m-14.8 2.5c-.7 1.2-1.1 2.6-1.4 4.4h13c-.2-2.2-.6-3.8-1.2-4.8-1-1.9-2.7-2.9-5.1-2.9-2.3 0-4.1 1.1-5.3 3.3" />
	<path d="M741.2 361.2c2.3-.3 3.8-.7 4.5-1.3.7-.6 1-2.2 1.1-4.7v-29.6c0-2.4-.3-3.9-1-4.6-.7-.7-2.2-1.2-4.5-1.4v-1.2h33.6l.2 9.5h-1.6c-.5-2.9-1.3-4.8-2.4-5.7-1.1-.9-3.5-1.3-7.2-1.3h-8.6c-.9 0-1.5.2-1.7.5-.2.3-.3.9-.3 1.8V338h9.7c2.7 0 4.4-.4 5.2-1.3.7-.8 1.3-2.6 1.8-5.1h1.5V347H770c-.5-2.6-1.1-4.3-1.8-5.1-.7-.8-2.5-1.3-5.1-1.3h-9.7v16.5c0 1.3.4 2.1 1.2 2.3.8.2 3.2.4 7.1.4 4.3 0 7.4-.5 9.5-1.5 2-1 3.9-3.4 5.5-7.2h1.8l-2.9 11.2h-34.2v-1.1zM780.3 361.5c1.5-.2 2.5-.6 3.1-1.1.6-.6.9-1.9.9-3.9V340c0-1.4-.1-2.4-.4-2.9-.4-.8-1.2-1.2-2.4-1.2h-.6c-.2 0-.4.1-.7.1v-1.1c.8-.3 2.8-.9 6-2l2.9-1c.1 0 .2.1.2.2s.1.3.1.5v4.8c1.9-1.9 3.4-3.1 4.4-3.8 1.6-1.1 3.3-1.6 5-1.6 1.4 0 2.7.4 3.8 1.3 2.2 1.6 3.3 4.6 3.3 8.8V357c0 1.6.3 2.7.9 3.4.6.7 1.6 1 3 1.1v.9h-13.2v-.9c1.5-.2 2.6-.6 3.1-1.3.6-.7.9-2.1.9-4.3V342c0-1.9-.3-3.4-1-4.6-.7-1.2-1.9-1.9-3.6-1.9-1.2 0-2.5.4-3.7 1.3-.7.5-1.6 1.3-2.7 2.5v18.2c0 1.6.3 2.6 1 3.1s1.7.8 3.1.8v.9h-13.5v-.8z" />
	<path fill-rule="evenodd" clip-rule="evenodd" d="M832.9 335.1c2.2 2.1 3.3 5.1 3.3 9h-19.6c.2 5 1.3 8.7 3.2 11 2 2.3 4.3 3.4 6.9 3.4 2.2 0 4-.6 5.5-1.8 1.5-1.2 2.8-2.9 4.1-5.1l1.1.4c-.8 2.7-2.4 5.3-4.8 7.6-2.3 2.3-5.1 3.5-8.5 3.5-3.9 0-6.9-1.5-9-4.6-2.1-3.1-3.2-6.6-3.2-10.6 0-4.3 1.2-8.1 3.7-11.3 2.4-3.2 5.6-4.7 9.6-4.7 3 .1 5.5 1.1 7.7 3.2m-14.8 2.5c-.7 1.2-1.1 2.6-1.4 4.4h13c-.2-2.2-.6-3.8-1.2-4.8-1-1.9-2.7-2.9-5.1-2.9-2.3 0-4.1 1.1-5.3 3.3" />
	<path d="M839.1 361.3c1.9-.2 3.2-.5 3.8-1 .6-.5.9-1.7.9-3.4v-14.6c0-2.1-.2-3.7-.6-4.6-.4-.9-1.1-1.4-2.1-1.4-.2 0-.5 0-.8.1-.3 0-.7.1-1.1.2v-1.1c1.2-.4 2.4-.9 3.6-1.3 1.2-.5 2.1-.8 2.6-1 1-.4 2.1-.9 3.2-1.4.1 0 .2.1.2.2s.1.3.1.7v5.3c1.3-1.9 2.6-3.4 3.8-4.5 1.2-1.1 2.5-1.6 3.8-1.6 1 0 1.9.3 2.6 1 .7.6 1 1.5 1 2.5 0 .9-.3 1.6-.8 2.2-.5.6-1.1.9-1.9.9-.8 0-1.6-.4-2.4-1.1-.8-.8-1.4-1.1-1.9-1.1-.7 0-1.6.6-2.7 1.9-1.1 1.2-1.6 2.5-1.6 3.8v14.6c0 1.9.4 3.2 1.2 3.9.8.7 2.2 1.1 4.1 1v1.1h-15.2v-1.3z" />
	<path fill-rule="evenodd" clip-rule="evenodd" d="M867.9 372.2c2 .7 4.2 1 6.7 1 3.4 0 6.2-.6 8.3-1.9 2.1-1.2 3.2-2.8 3.2-4.6 0-1.5-.9-2.4-2.6-2.9-1.1-.3-3.1-.4-6.1-.5-.8 0-1.6-.1-2.4-.1-.8 0-1.6-.1-2.3-.1-.5 0-1.2-.1-2.2-.3-1-.2-1.8-.3-2.3-.4-.2 0-.9.7-1.8 2-1 1.4-1.5 2.7-1.5 3.8.1 2 1.1 3.3 3 4m-3.3-24.2c-1-1.7-1.5-3.5-1.5-5.6 0-2.5 1-4.9 2.9-7.2s4.6-3.4 8.1-3.4c1.5 0 3.2.4 5 1.1 1.8.7 3.6 1.1 5.2 1.1h1.9c.9 0 1.5-.1 1.9-.1h.4v2.6h-5.3c.4.9.7 1.7.9 2.4.3 1.3.5 2.4.5 3.6 0 2.5-1 4.7-2.9 6.8-1.9 2.1-4.6 3.1-7.8 3.1-.5 0-1.4-.1-2.8-.3-.6 0-1.4.5-2.4 1.6s-1.5 1.9-1.5 2.6c0 .7.7 1.2 2.2 1.5.9.2 2 .3 3.1.3 5.3 0 8.9.3 10.8.9 3.1 1 4.7 3.2 4.7 6.6 0 3.4-1.8 6.1-5.5 8.2-3.6 2-7.3 3-11 3.1-3.4 0-6.1-.7-8-2.2-2-1.4-3-2.9-3-4.5 0-.8.3-1.6.8-2.3.5-.7 1.6-1.8 3.1-3.3l2-1.9.4-.4c-.9-.4-1.7-.8-2.1-1.1-.8-.7-1.2-1.4-1.2-2.3 0-.8.3-1.7 1.1-2.6.7-1 2.2-2.5 4.6-4.7-2.1-.8-3.5-1.9-4.6-3.6m13.1 1.9c1.2-1 1.9-2.8 1.9-5.4 0-2.1-.5-4.4-1.5-6.9-1-2.6-2.6-3.9-5-3.9-2 0-3.4 1-4.2 3-.4 1.1-.6 2.4-.6 3.9 0 2.6.6 5 1.8 7.1 1.2 2.1 2.8 3.1 4.7 3.1 1.2 0 2.2-.3 2.9-.9" />
	<path d="M891.3 332.6h13v1c-1 0-1.8.1-2.3.3-.9.3-1.4.8-1.4 1.7 0 .3.1.6.2.9.1.3.3.8.6 1.4l7.2 16.8 5.8-17c.1-.2.2-.6.3-1.2.1-.6.2-1 .2-1.2 0-.6-.2-1-.6-1.2-.4-.3-.8-.4-1.4-.5l-1-.1v-1h8.5v1c-.8.1-1.5.4-1.9.9-.4.5-.8 1.2-1.1 2.1l-9.7 27.1c-1.7 4.7-3.3 8.1-4.8 10.2-1.5 2.1-3.5 3.1-5.9 3.1-1.2 0-2.2-.3-3.2-.9-1-.6-1.5-1.6-1.5-2.9 0-.9.3-1.6.9-2.1.6-.5 1.4-.8 2.3-.8.5 0 1.3.2 2.4.6 1.1.4 1.8.6 2.3.6 1.2 0 2.4-1.4 3.6-4.2 1.3-2.8 1.9-4.7 1.9-5.6 0-.2 0-.4-.1-.7-.1-.3-.1-.5-.2-.7l-9.9-22.5c-.7-1.6-1.3-2.7-1.9-3.1-.5-.5-1.3-.9-2.3-1v-1zM930.8 319.7c0-5.8-4.7-10.5-10.5-10.5v1.2c5.1 0 9.3 4.2 9.3 9.3 0 5.1-4.2 9.3-9.3 9.3v1.3c5.8-.2 10.5-4.8 10.5-10.6m-10.5.9v-1.8c.2 0 .4-.1.6-.1 1.4-.5 2-1.4 1.8-2.6-.2-1.6-1.3-1.9-1.7-1.9h-.6v-.7h.2c.8 0 1.7 0 2.4.3.5.2 1.2.5 1.6 1.2.7 1.5 0 2.9-.6 3.6-.4.3-1.1.8-2.1.8l3.7 4.7c.3.5.6.5 1.1.5v.6h-2.9l-3.5-4.6zm0-11.4c-5.9 0-10.6 4.7-10.6 10.5 0 5.9 4.7 10.6 10.6 10.6V329c-5.1.1-9.3-4.1-9.3-9.2-.1-5.1 4.1-9.4 9.2-9.4h.1v-1.2zm0 4.2v.7h-1c-.3 0-.6.1-.6.6v4c.6 0 1 0 1.7-.1v1.8l-.8-1h-.8v3.9c0 .7.8.9 1.5.9v.6h-4.9v-.6c.7 0 1.5-.3 1.5-.8v-8.7c0-.9-.1-.9-1.3-.9v-.6h4.7z" />
	<path d="M920.3 330.3c-2.9 0-5.5-1.1-7.5-3.1s-3.1-4.7-3.1-7.5c0-5.8 4.8-10.6 10.6-10.6s10.6 4.7 10.6 10.6c0 5.8-4.6 10.5-10.6 10.6zm0-21c-5.8 0-10.5 4.7-10.5 10.4 0 2.8 1.1 5.5 3.1 7.4 2 2 4.6 3.1 7.4 3.1 5.8-.1 10.4-4.7 10.4-10.5s-4.6-10.4-10.4-10.4zm-.1 19.7c-2.4 0-4.7-.9-6.4-2.6-1.8-1.7-2.8-4.2-2.8-6.6 0-2.5.9-4.9 2.7-6.7 1.8-1.8 4.1-2.8 6.6-2.8s4.9 1 6.7 2.8c1.8 1.8 2.8 4.1 2.8 6.6 0 5.2-4.2 9.4-9.4 9.4-.1-.1-.2-.1-.2-.1zm0-18.5c-2.4 0-4.7 1-6.5 2.7-1.7 1.8-2.7 4.1-2.6 6.5 0 2.4 1 4.8 2.7 6.5 1.7 1.7 3.9 2.6 6.3 2.6h.2c5.1 0 9.2-4.1 9.2-9.2 0-2.4-1-4.7-2.7-6.5-1.8-1.7-4.1-2.6-6.6-2.6zm6.4 14.6h-3.1l-4-5.4h-.7v3.9c0 .8 1 .8 1.4.8h.1v.7h-5v-.7h.1c.7 0 1.4-.3 1.4-.7V315c0-.8 0-.8-1.2-.8h-.1v-.7h5.1c.8 0 1.7 0 2.4.3.5.2 1.2.6 1.6 1.2.8 1.6-.1 3.1-.7 3.7-.4.3-1.1.8-2 .8l3.6 4.6c.3.4.6.4 1 .4h.1v.6zm-3-.2h2.8v-.4c-.4 0-.8 0-1.1-.5l-3.8-4.8h.2c1 0 1.7-.5 2.1-.8.5-.5 1.4-2 .6-3.5-.3-.6-1-1-1.5-1.2-.7-.3-1.6-.3-2.4-.3h-5v.4c1.1 0 1.3 0 1.3 1v8.7c0 .6-.7.9-1.5.9v.4h4.7v-.4c-.9 0-1.5-.4-1.5-1v-4h1l4.1 5.5zm-4.1-6h-1v-4.1c0-.5.3-.7.7-.7h1.7c.4 0 1.6.4 1.8 2 .2 1.2-.5 2.2-1.9 2.7-.3.1-.8.1-1.3.1zm-.7-.1h.3c.6 0 1.2 0 1.8-.2 1.3-.4 2-1.3 1.8-2.5-.2-1.5-1.3-1.9-1.7-1.9h-1.7c-.4 0-.6.2-.6.6v4z" />
	<path fill="#008457" d="M7 184.7C7 82.7 89.7-.1 191.7-.1c102 0 184.8 82.7 184.8 184.8s-82.7 184.8-184.8 184.8C89.7 369.5 7 286.7 7 184.7" />
	<path fill="#FFF" d="M-.2 172.7l130.1-50.8.9 13.8s58.3-20.4 79.4-22.2c20.3-1.6 31.4-3.7 47.1 4.6 0 0 31.4-19.4 52.6-19.4h53.6l.9 6.4h-38.8s-31.4 1-48.9 20.4c0 0-39.7-7.3-60-1.9C196.5 129.2 105 169 105 169v-16.6L-.2 180v-7.3z" />
	<path fill="#FFF" d="M-.2 220.7l130.1-50.8.9 13.8s74.6-43.5 95.1-48.9c17.6-4.6 46.2-10.2 61.9-1.9 0 0 12.6-13.2 33.2-18.4 13-3.3 16.7-9.3 43.5-8.3 10.1 4.6.9 5.6.9 5.6L337.3 146s-10.7-4.4-36.7-7c-20.5-2.1-53.6 4.2-76.2 15.6C205.7 163.9 105 217 105 217v-16.6L-.2 228v-7.3z" />
	<path fill="#FFF" d="M.2 272.4l130.2-54.8v15.2s81.5-59.8 100.9-68.5c21.8-9.8 60.8-23.3 118.5-12.8 0 0 13.3-36.8 34.5-36.8s-12.8 12.8-18 45c-36.8-6-69-12-126 24-17.8 11.4-135.3 87.9-135.3 87.9v-22.1L.2 279.7v-7.3z" />
	<path fill="#FFF" d="M171.3 269.4h36s69.3-67.2 89.3-80.3c17.3-11.3 44.3-24.8 83.3-17.3V165s-36-3-57-1.5-65.3 24-108 63.8c-42.9 39.8-43.6 42.1-43.6 42.1" />
	<path fill="#FFF" d="M253.5 268.6h37.8s31.4-56.9 51.8-70.5c18-12 12-16.5 48-16.5v-6.8s-25.5-1.5-38.3 3c-12.8 4.5-31.5 11.3-60 41.3-28.5 30-39.3 49.5-39.3 49.5" />
	<path fill="#008457" d="M306.3 135.1l16.5 3s25.4-24.6 40.4-28.4c0 0-18.7-6.9-56.9 25.4" />
	<path fill="none" d="M7 184.7c0 102 82.7 184.8 184.8 184.8 102 0 184.8-82.7 184.8-184.8 0-102-82.7-184.8-184.8-184.8C89.7-.1 7 82.7 7 184.7" /></svg>